<svg xmlns="http://www.w3.org/2000/svg" width="115" height="119" viewBox="0 0 115 119" fill="none">
  <g clip-path="url(#clip0_257_25)">
    <path d="M36.96 53.6473C36.9001 52.568 37.0641 51.5043 37.2412 50.4432C37.4652 49.1032 37.7985 47.7919 38.1344 46.4754C38.3271 45.7193 38.4599 44.9503 38.65 44.1942C39.0433 42.6091 39.5901 41.0762 40.3505 39.6241C41.0068 38.3727 41.8323 37.2413 42.8322 36.2454C43.5223 35.5572 44.2723 34.9393 45.0848 34.397C45.2515 34.2849 45.4155 34.165 45.6082 34.0294C45.5067 33.9512 45.4416 33.8939 45.366 33.8496C43.3869 32.6425 41.9026 30.9923 40.9573 28.8702C40.4234 27.6761 40.1188 26.4143 39.9209 25.1213C39.6891 23.6118 39.7047 22.0971 39.7438 20.5824C39.762 19.9046 39.8427 19.2294 39.8974 18.5542C39.9026 18.4864 39.9287 18.4238 39.9599 18.2935C40.0094 18.429 40.0458 18.5099 40.0667 18.5933C40.749 21.4037 41.8271 24.0602 43.1942 26.6021C44.301 28.659 45.59 30.5986 47.0066 32.4548C48.0977 33.8861 49.2566 35.2626 50.4597 36.6C50.517 36.6651 50.5847 36.7225 50.681 36.8137C50.9831 36.2793 51.2696 35.7709 51.569 35.2365C51.3972 35.0045 51.2227 34.7698 51.0508 34.5352C50.806 34.1989 50.5612 33.86 50.3164 33.5211C50.3269 33.5107 50.3373 33.5028 50.3451 33.4924C50.6654 33.6306 50.9857 33.7687 51.3086 33.9069C52.6445 34.4831 54.0195 34.9184 55.4674 35.0801C55.9934 35.14 56.5246 35.1974 57.0533 35.1974C58.7694 35.1974 60.4204 34.8507 62.0037 34.1859C62.3683 34.0321 62.7224 33.8574 63.0818 33.6905C63.1625 33.654 63.2432 33.6201 63.3734 33.5628C63.3266 33.7792 63.2927 33.9538 63.2485 34.1259C63.1573 34.4883 63.0662 34.8481 62.9672 35.2104C62.9177 35.3929 62.949 35.5311 63.0974 35.6641C63.4594 35.9847 63.8083 36.321 64.1833 36.6704C64.2849 36.5609 64.3734 36.4774 64.4489 36.381C65.1026 35.5285 65.7614 34.6786 66.3994 33.8157C67.4879 32.3401 68.5192 30.8254 69.4619 29.2508C70.7795 27.0505 71.9332 24.7719 72.7352 22.3291C73.1675 21.0152 73.4982 19.6804 73.6206 18.2987C73.6258 18.2466 73.6467 18.197 73.7196 18.1423C73.7925 18.5542 73.868 18.9661 73.9357 19.378C74.1675 20.7884 74.2794 22.2092 74.2143 23.6379C74.0841 26.4978 73.2118 29.0918 71.4384 31.3625C70.4696 32.6008 69.3395 33.6697 68.0869 34.616C68.0244 34.663 67.9619 34.7125 67.902 34.7672C67.8786 34.7881 67.8603 34.8194 67.8187 34.8793C67.9593 34.9888 68.0973 35.1009 68.2405 35.2052C70.2327 36.673 71.9878 38.378 73.3498 40.4557C74.3628 42.0017 75.0789 43.6832 75.4461 45.5029C75.657 46.5484 75.7846 47.6042 75.7586 48.6679C75.7299 49.7524 75.6232 50.8291 75.4018 51.898C75.1674 53.032 74.8498 54.1374 74.4513 55.2193C74.3237 55.5634 74.0815 55.7042 73.6831 55.686C73.3758 55.6729 73.1753 55.4774 73.0685 55.1489C72.954 54.797 73.0477 54.4528 73.0816 54.1087C73.1441 53.4804 73.2248 52.8521 73.2691 52.2212C73.3237 51.4313 73.3706 50.6414 73.3758 49.8488C73.381 49.1945 73.3342 48.5375 73.2899 47.8831C73.2534 47.3644 73.1935 46.8482 73.131 46.332C73.0113 45.3074 72.7899 44.3037 72.5087 43.3157C72.2014 42.239 71.8238 41.1831 71.3576 40.1638C71.3108 40.0621 71.2535 39.9656 71.191 39.8457C70.5608 40.0908 69.9462 40.3332 69.316 40.5783C69.329 40.706 69.3316 40.8077 69.3499 40.9042C69.6936 42.5961 70.0426 44.2907 70.3889 45.9826C70.5946 46.9889 70.7769 48.0031 71.0009 49.0042C71.1415 49.6351 70.5634 50.193 70.0426 50.1721C69.4436 50.1486 68.8447 50.1747 68.2431 50.1799C65.6859 50.2008 63.1287 50.219 60.574 50.2399C59.7251 50.2477 58.8762 50.2451 58.0298 50.2894C57.509 50.3181 57.0455 49.8749 57.1002 49.3327C57.1965 48.3785 57.2408 47.4165 57.3033 46.4571C57.3293 46.0843 57.3475 45.7115 57.3736 45.3413C57.4387 44.348 57.509 43.3574 57.5741 42.3641C57.6236 41.6315 57.6652 40.8963 57.7147 40.1638C57.7434 39.7414 57.9777 39.4833 58.371 39.3504C59.397 39.001 60.4256 38.6491 61.4516 38.2997C61.5584 38.2632 61.6625 38.2215 61.8136 38.1668C61.5766 37.6506 61.3475 37.1553 61.1027 36.626C60.1938 36.892 59.2954 37.1344 58.3553 37.1944C57.4152 37.2543 56.483 37.2022 55.5585 37.0249C54.6341 36.845 53.7487 36.54 52.845 36.149C52.5221 36.5739 52.1992 37.0014 51.8555 37.4577C52.168 37.6323 52.4518 37.7914 52.7357 37.9478C53.3815 38.2997 54.0221 38.6595 54.6731 39.001C54.8971 39.1184 54.9934 39.2487 54.9908 39.5224C54.9596 42.849 54.944 46.1782 54.9309 49.5047C54.9309 49.8906 54.8294 50.2008 54.4622 50.3676C54.3424 50.4224 54.2018 50.4458 54.069 50.4485C53.3242 50.4589 52.5768 50.4537 51.832 50.4589C51.3685 50.4641 50.905 50.4876 50.4414 50.4902C50.1029 50.4902 49.7644 50.4667 49.4258 50.4693C48.9962 50.4693 48.5665 50.4954 48.1368 50.498C47.0405 50.5032 45.9416 50.498 44.8452 50.5006C44.3478 50.5006 43.8478 50.485 43.3531 50.5136C42.7854 50.5475 42.2724 50.0131 42.4859 49.3509C43.1578 47.2627 43.7958 45.164 44.4468 43.068C44.8244 41.8479 45.202 40.6252 45.5796 39.4051C45.6082 39.3113 45.6212 39.2148 45.6551 39.0688C45.1447 39.0219 44.6681 38.9802 44.1786 38.9333C44.0249 39.2956 43.8765 39.6215 43.7489 39.9578C43.3166 41.0997 42.8765 42.2416 42.4651 43.3913C41.8635 45.0728 41.3245 46.7778 40.887 48.5114C40.5719 49.7602 40.2646 51.0116 40.0042 52.2734C39.762 53.4439 39.5849 54.6301 39.3818 55.8111C39.3558 55.9545 39.3401 56.1005 39.3193 56.2465C39.2828 56.5046 39.2177 56.5541 38.9651 56.5358C37.9287 56.4655 37.4417 55.9545 37.1709 55.0551C37.0355 54.6067 36.9808 54.1244 36.9548 53.6525L36.96 53.6473ZM8.22886 48.4854C8.37209 48.2038 8.53875 47.9327 8.69239 47.6563C8.75229 47.5495 8.8252 47.4686 8.96061 47.5025C9.41894 47.6172 9.87465 47.7346 10.359 47.8597C10.3017 47.9979 10.2679 48.0917 10.2236 48.1803C9.34081 50.0548 8.45542 51.9266 7.57002 53.8011C7.34346 54.2834 7.11951 54.7657 6.89816 55.248C6.78358 55.4983 6.794 55.6025 7.00493 55.785C7.11951 55.8841 7.26794 55.9727 7.41377 55.9936C7.90595 56.064 8.40073 56.1005 8.89551 56.15C9.41112 56.1995 9.92934 56.2465 10.4476 56.2986C11.2679 56.382 12.0855 56.4681 12.9058 56.5515C13.4553 56.6088 14.0048 56.6688 14.5568 56.7236C14.9839 56.7653 15.411 56.8122 15.8407 56.833C16.2209 56.8513 16.4084 56.6871 16.4552 56.3116C16.5151 55.8293 16.5516 55.3444 16.5959 54.8621C16.6792 53.9966 16.7625 53.1311 16.8459 52.2655C16.9031 51.6816 16.9604 51.095 17.0125 50.511C17.0724 49.8593 17.1219 49.2049 17.1922 48.5532C17.2208 48.2951 17.1479 48.136 16.9162 48.0005C16.4969 47.7554 16.0959 47.4791 15.6922 47.2079C15.6167 47.1558 15.5125 47.0593 15.5178 46.9889C15.5386 46.6657 15.5933 46.345 15.6428 45.9748C17.8042 46.9551 20.0385 47.002 22.3249 46.6787C22.3796 47.088 22.4291 47.4504 22.4785 47.8336C22.3744 47.844 22.3067 47.8545 22.2416 47.8571C21.3484 47.8988 20.4577 47.9379 19.5645 47.9796C19.2651 47.9926 19.0698 48.1595 19.0359 48.4463C18.9578 49.1189 18.8901 49.7941 18.8146 50.4667C18.739 51.1628 18.6635 51.8589 18.5854 52.5549C18.5021 53.2849 18.4135 54.0122 18.3302 54.7422C18.2755 55.2141 18.2469 55.6886 18.1583 56.1552C18.0437 56.76 18.3458 57.0885 18.8901 57.0312C18.9343 57.026 18.9812 57.0312 19.0255 57.0312C22.2962 57.0312 25.567 57.0312 28.8378 57.0312C28.9159 57.0312 28.9966 57.0312 29.0747 57.0208C29.5383 56.9504 29.7336 56.6688 29.6476 56.21C29.4966 55.3992 29.3508 54.5884 29.1997 53.7802C28.9602 52.4715 28.718 51.1602 28.4784 49.8514C28.4107 49.4786 28.356 49.1006 28.2909 48.707C28.5331 48.6705 28.731 48.6288 28.9315 48.6105C29.3299 48.574 29.3299 48.5792 29.4732 48.9416C29.5148 49.0459 29.5539 49.1528 29.5904 49.2597C30.1763 50.9673 30.395 52.7348 30.4185 54.5284C30.4289 55.2636 30.3898 55.9988 30.356 56.734C30.3169 57.5474 30.2127 58.3529 30.0331 59.1481C29.9549 59.4896 29.8664 59.8285 29.7987 60.1726C29.7388 60.4751 29.869 60.7253 30.1112 60.814C30.4289 60.9313 30.7544 60.8192 30.9185 60.5116C31.1112 60.1544 31.2987 59.792 31.4653 59.4192C32.0564 58.0948 32.3846 56.6975 32.507 55.261C32.5825 54.3955 32.5825 53.5247 32.4835 52.654C32.3637 51.6034 32.1502 50.5788 31.7804 49.5881C31.0382 47.5964 29.8169 45.9592 28.119 44.6791C27.8534 44.4784 27.58 44.2881 27.3092 44.0925C27.33 44.0613 27.3352 44.0482 27.343 44.043C27.442 43.9883 27.5409 43.9335 27.6399 43.8814C28.8872 43.24 29.9393 42.3667 30.7882 41.2483C31.5981 40.1794 32.1554 38.9854 32.52 37.7001C32.8247 36.6182 32.9783 35.5076 32.9783 34.3866C32.9783 33.6306 32.9392 32.8719 32.7908 32.1263C32.7153 31.7431 32.6137 31.3651 32.5226 30.9818C32.5044 30.9818 32.4887 30.9871 32.4705 30.9897C32.4054 31.3651 32.3533 31.7431 32.2778 32.1159C31.8585 34.1337 31.0018 35.9821 30.0044 37.7627C29.1503 39.293 28.2232 40.7842 27.3482 42.3041C26.6842 43.4564 25.9759 44.567 24.9316 45.4195C24.9134 45.4326 24.9004 45.4534 24.8821 45.4664C24.8248 45.5108 24.7649 45.5525 24.6894 45.6098C24.5123 45.2031 24.3483 44.8225 24.179 44.4315C24.0879 44.4549 24.0228 44.468 23.9603 44.4862C23.1947 44.726 22.4212 44.932 21.6192 45.0128C20.5801 45.1171 19.5437 45.1119 18.5099 44.945C17.1089 44.7208 15.7651 44.2907 14.4475 43.7667C14.1063 43.6311 13.7652 43.4929 13.4215 43.3574C13.4084 43.3756 13.3928 43.3939 13.3798 43.4121C13.872 44.0326 14.3667 44.6504 14.8771 45.2944C14.6558 45.5082 14.4657 45.6933 14.2652 45.8914C14.0881 45.7298 13.9345 45.5968 13.7886 45.456C12.5725 44.2881 11.5725 42.9481 10.6949 41.5142C9.5856 39.7023 8.69239 37.7862 8.00751 35.7735C7.57262 34.4961 7.22628 33.2004 7.04139 31.863C6.99451 31.5241 6.94764 31.1852 6.89816 30.8463C6.76275 30.9792 6.68723 31.1278 6.62212 31.279C6.0362 32.6556 5.86693 34.0842 6.08307 35.565C6.33828 37.3065 7.01274 38.8941 7.88512 40.4036C8.55437 41.5637 9.33821 42.6404 10.2236 43.6467C10.4007 43.8475 10.5647 44.056 10.7548 44.2829C10.6559 44.3141 10.5934 44.3376 10.5309 44.3532C9.42675 44.6192 8.47625 45.1849 7.62731 45.9122C6.53359 46.8508 5.66902 47.9796 4.98414 49.2466C4.32009 50.4745 3.80969 51.7702 3.35657 53.0868C2.94512 54.2808 2.74721 55.5191 2.73159 56.7809C2.72898 57.0859 2.76284 57.3909 2.77846 57.696C2.80971 58.2982 2.93992 58.8822 3.15345 59.4453C3.30189 59.8285 3.50761 60.1805 3.8175 60.4568C4.03104 60.6471 4.26801 60.7957 4.59092 60.754C4.61957 60.6914 4.65342 60.6315 4.66904 60.5689C4.78362 60.1544 4.90341 59.7425 5.00758 59.3254C5.4685 57.4587 5.9086 55.5895 6.38775 53.7281C6.85129 51.9292 7.37992 50.1513 8.22105 48.4854H8.22886ZM70.2249 54.9899C69.8837 54.8282 69.5243 54.8309 69.1624 54.8647C68.9593 54.883 68.7587 54.9143 68.5556 54.9117C68.2614 54.9117 67.9697 54.8778 67.6754 54.8674C67.0557 54.8465 66.4333 54.8387 65.8135 54.8152C64.5271 54.7657 63.238 54.7057 61.9516 54.6536C61.1495 54.6223 60.3475 54.604 59.5454 54.5754C59.2303 54.5649 58.9152 54.5337 58.5975 54.5284C58.2251 54.5206 57.8527 54.5284 57.4569 54.5284C56.6809 55.9023 56.621 57.3675 56.983 58.9056C56.259 58.8535 55.5794 58.804 54.871 58.7518C54.9023 58.6058 54.9205 58.5302 54.9387 58.452C54.957 58.3738 54.9752 58.2982 54.9908 58.22C55.2226 57.0703 55.0299 56.0223 54.2929 55.0837C54.1419 54.8908 53.9804 54.8283 53.7461 54.8335C52.2201 54.8647 50.6914 54.8856 49.1654 54.9091C47.2879 54.9377 45.4103 54.9664 43.5327 54.9977C43.0354 55.0055 42.538 55.0212 42.0406 55.0446C41.9442 55.0498 41.8245 55.0707 41.762 55.1307C41.564 55.321 41.426 55.5426 41.4078 55.8398C41.3739 56.4029 41.5588 56.8852 41.887 57.3232C41.9807 57.4457 42.0406 57.5656 42.0172 57.7273C41.8062 59.1481 41.7047 60.5819 41.6474 62.0132C41.5771 63.7781 41.5901 65.5457 41.7828 67.3028C41.8114 67.5531 41.8088 67.819 41.9859 68.0432C42.2463 68.3691 42.5796 68.4265 42.9598 68.3639C44.077 68.1736 45.202 68.1006 46.3348 68.0954C47.728 68.0902 49.1107 68.184 50.4727 68.4995C51.0274 68.6272 51.5169 68.4108 51.6081 67.7226C51.7852 66.4008 51.9805 65.0843 52.1706 63.7651C52.2044 63.5227 52.2539 63.2802 52.2956 63.0351C52.9023 63.0534 53.4778 63.0873 54.0507 63.0847C54.6367 63.0795 55.2278 63.0586 55.8111 63.0065C56.384 62.9569 56.9517 62.8605 57.522 62.7797C58.0949 62.6988 58.6548 62.5346 59.2303 62.4642C59.2511 62.5372 59.2694 62.5685 59.272 62.5998C59.3449 63.4914 59.4152 64.3804 59.4855 65.272C59.5506 66.0827 59.6079 66.8961 59.6808 67.7069C59.7355 68.3117 60.147 68.6037 60.7355 68.4786C61.5662 68.3039 62.4047 68.1736 63.2537 68.1814C64.2719 68.1918 65.2875 68.2127 66.3057 68.2414C66.79 68.2544 67.2744 68.3065 67.7614 68.3196C68.1858 68.33 68.5374 68.0432 68.5895 67.6652C68.6155 67.4853 68.6337 67.3054 68.6468 67.1256C68.7405 65.8168 68.8317 64.5107 68.9228 63.202C68.9879 62.2661 69.0582 61.3302 69.1233 60.3942C69.191 59.4479 69.2718 58.5015 69.3186 57.5526C69.3316 57.3075 69.4072 57.1954 69.6337 57.1146C70.0348 56.9712 70.3785 56.7262 70.6155 56.3638C70.9801 55.8085 70.816 55.274 70.2223 54.9925L70.2249 54.9899ZM29.0148 61.2754C28.718 61.0851 28.3873 61.033 28.0409 61.0616C27.8951 61.0747 27.7466 61.0955 27.6034 61.0825C26.9055 61.0251 26.2102 60.9574 25.5123 60.8974C24.5123 60.8088 23.5124 60.7201 22.5098 60.6341C21.8692 60.5793 21.226 60.5324 20.5854 60.4777C19.8666 60.4151 19.1453 60.3525 18.4265 60.2847C18.2417 60.2665 18.1375 60.3369 18.0516 60.4985C17.8458 60.8896 17.7599 61.3093 17.7365 61.7395C17.6974 62.4303 17.7625 63.1186 17.8901 63.799C17.9109 63.9059 17.9213 64.018 17.9422 64.1666C17.0203 64.1953 16.1323 64.2239 15.2079 64.2552C15.2469 64.1145 15.273 64.018 15.3016 63.9241C15.4917 63.3167 15.6219 62.6962 15.6063 62.0575C15.5959 61.6143 15.5152 61.1789 15.2626 60.7957C15.1792 60.6706 15.0855 60.5689 14.9162 60.5559C14.0829 60.4985 13.2496 60.4333 12.4163 60.376C11.8199 60.3343 11.221 60.3108 10.6246 60.2691C9.89288 60.217 9.16113 60.1518 8.42938 60.0996C7.83303 60.0553 7.23409 60.0293 6.63775 59.9771C6.21588 59.938 5.92683 60.1752 5.89818 60.6054C5.87995 60.8896 5.94245 61.1607 6.11432 61.3745C6.30703 61.6169 6.30182 61.8594 6.23672 62.1279C6.23151 62.1488 6.23151 62.1722 6.2263 62.1957C6.00495 63.2124 5.86693 64.2396 5.74714 65.2746C5.62215 66.3356 5.62215 67.3967 5.65079 68.4604C5.66381 68.9896 5.91641 69.2164 6.44765 69.1955C6.69504 69.1851 6.94243 69.1486 7.19242 69.1434C8.23146 69.1173 9.2705 69.1199 10.3069 69.2451C11.0595 69.3363 11.8069 69.438 12.5387 69.6309C13.0256 69.7586 13.3329 69.5866 13.4527 69.1017C13.674 68.2023 13.8902 67.3002 14.1115 66.4008C14.148 66.2496 14.1871 66.101 14.2313 65.9289C16.0802 66.1896 17.9005 66.101 19.7442 65.8481C19.7442 65.9498 19.7494 65.9837 19.7442 66.015C19.4994 67.1412 19.2547 68.2674 19.0073 69.3937C18.9083 69.8395 19.1974 70.2044 19.6505 70.1862C19.8406 70.1784 20.0307 70.1419 20.2234 70.1315C20.9551 70.095 21.6895 70.035 22.4239 70.0376C23.1686 70.0376 23.9134 70.0976 24.6582 70.1419C25.1425 70.1706 25.6269 70.2044 26.1087 70.2644C26.6659 70.3322 26.9524 70.1158 27.0253 69.5475C27.08 69.1225 27.1503 68.6976 27.2154 68.2753C27.3534 67.3941 27.494 66.5129 27.6295 65.6317C27.7675 64.7401 27.9107 63.8485 28.0383 62.9517C28.0643 62.7718 28.1347 62.7014 28.3013 62.6597C28.6268 62.5815 28.9133 62.4303 29.1346 62.1696C29.4107 61.849 29.369 61.51 29.0096 61.2806L29.0148 61.2754ZM69.8108 51.6581C67.9228 51.6425 66.0374 51.619 64.1495 51.6034C63.2224 51.5955 62.2953 51.6034 61.3683 51.5955C59.0741 51.5773 56.7798 51.5512 54.4856 51.5408C52.1107 51.5278 49.7357 51.5278 47.3608 51.5199C46.7384 51.5199 46.116 51.5173 45.4936 51.5095C44.7697 51.4991 44.0484 51.4704 43.3244 51.473C42.952 51.473 42.6161 51.606 42.3661 51.9058C42.0927 52.2343 42.1083 52.6357 42.3948 52.946C42.6343 53.2067 42.9468 53.2953 43.2775 53.324C43.5926 53.3501 43.9077 53.3449 44.2228 53.3449C45.5015 53.3501 46.7801 53.3553 48.0561 53.3579C49.7409 53.3631 51.4232 53.3657 53.1081 53.3761C53.707 53.3787 54.3059 53.4074 54.9049 53.4126C57.7408 53.4387 60.5792 53.4622 63.4151 53.483C64.3526 53.4908 65.2927 53.483 66.2302 53.483V53.4908C66.5687 53.4908 66.9098 53.4908 67.2484 53.4908C67.5869 53.4908 67.928 53.5013 68.2666 53.5013C68.7301 53.5013 69.1936 53.5091 69.6572 53.4804C70.0894 53.4543 70.467 53.2823 70.7457 52.9329C70.9827 52.6331 70.9462 52.2525 70.6728 51.984C70.4306 51.7467 70.1415 51.6581 69.8108 51.6555V51.6581ZM66.5947 70.3452C65.738 70.3009 64.8812 70.2566 64.0245 70.2123C63.1912 70.168 62.3552 70.1236 61.5532 70.0793C61.4099 70.0793 61.2954 70.0689 61.1834 70.0819C61.061 70.095 60.936 70.1158 60.824 70.1601C59.9959 70.4886 59.6157 71.4454 59.9647 72.3083C60.2589 73.0305 60.5558 73.7526 60.8527 74.4721C61.3318 75.6427 61.8084 76.8159 62.2953 77.9864C62.4568 78.3749 62.725 78.6773 63.1261 78.8363C63.8214 79.11 64.5323 78.8545 64.9281 78.1793C65.0817 77.916 65.2119 77.6397 65.3552 77.3685C66.1416 75.8773 66.9254 74.3861 67.7197 72.9001C67.9176 72.5299 68.0244 72.1519 67.9853 71.7296C67.9202 70.9944 67.3109 70.3817 66.5921 70.3452H66.5947ZM49.2566 70.3661C48.7957 70.34 48.3321 70.3165 47.8712 70.2983C46.7332 70.2488 45.5926 70.2044 44.4546 70.1549C44.4546 70.1497 44.4546 70.1445 44.4546 70.1367C44.3192 70.1367 44.1838 70.1419 44.0484 70.1367C43.0458 70.0871 42.1942 71.2082 42.6734 72.2562C43.2932 73.6144 43.8713 74.9883 44.4702 76.357C44.6655 76.8028 44.8556 77.2512 45.0666 77.6866C45.3296 78.2262 46.0535 78.5417 46.6473 78.3983C47.1342 78.281 47.4623 77.9968 47.7045 77.5693C48.6316 75.9243 49.5665 74.2844 50.4961 72.642C50.6498 72.3709 50.7409 72.0763 50.7149 71.7661C50.6524 71.0048 50.0222 70.4078 49.2592 70.3635L49.2566 70.3661ZM27.8951 58.1861C27.5461 58.16 27.1972 58.1418 26.8482 58.1209C26.317 58.0922 25.7884 58.0688 25.2571 58.0375C24.2415 57.9775 23.2285 57.9124 22.2129 57.855C21.5124 57.8159 20.8119 57.795 20.114 57.7533C19.2338 57.7038 18.3562 57.6386 17.4787 57.5865C16.7912 57.5474 16.1011 57.5265 15.4136 57.4874C14.3433 57.4274 13.2704 57.3597 12.2001 57.2971C11.6923 57.2684 11.1845 57.2476 10.6767 57.2189C9.61685 57.1563 8.55698 57.0885 7.49971 57.0234C7.49971 57.0286 7.49971 57.0312 7.49971 57.0364C7.35388 57.0364 7.20284 57.0208 7.05961 57.039C6.72108 57.0859 6.42942 57.3727 6.39036 57.6725C6.34349 58.014 6.50754 58.2982 6.8617 58.4494C7.00493 58.512 7.16378 58.5537 7.31742 58.5667C7.71064 58.6032 8.10647 58.6215 8.49969 58.6423C9.49185 58.6945 10.4866 58.7414 11.4788 58.7909C11.9293 58.8144 12.3824 58.8405 12.8329 58.8665C13.8798 58.9291 14.9292 58.9917 15.9761 59.0542C16.4943 59.0855 17.0151 59.109 17.5333 59.1403C18.5359 59.2002 19.5385 59.2654 20.5437 59.3201C21.2312 59.3592 21.9213 59.3827 22.6087 59.4218C23.4993 59.474 24.39 59.5339 25.2806 59.5887C25.9915 59.633 26.6998 59.6799 27.4107 59.7086C27.705 59.719 27.994 59.6617 28.2571 59.5078C28.5149 59.3566 28.6659 59.1298 28.6477 58.8405C28.6294 58.5641 28.4576 58.3608 28.1919 58.2565C28.0982 58.22 27.9992 58.1913 27.9003 58.1835L27.8951 58.1861ZM12.5074 71.2655C12.1975 71.0439 11.846 70.9918 11.4788 70.9839C10.7887 70.9683 10.0986 70.9657 9.41112 70.9422C8.59864 70.9162 7.78616 70.8745 6.97368 70.838C6.55702 70.8171 6.16641 70.8823 5.82006 71.143C5.31486 71.5236 5.26018 72.0841 5.50757 72.5221C5.86954 73.1608 6.20286 73.8178 6.55181 74.4643C6.89816 75.1135 7.25492 75.7574 7.59606 76.4092C8.09865 77.3711 9.55175 77.3425 10.1377 76.5056C11.0205 75.2464 11.9007 73.9846 12.7939 72.7333C13.2209 72.1362 12.9683 71.5966 12.51 71.2681L12.5074 71.2655ZM24.2467 71.5236C23.7389 71.4975 23.2311 71.4741 22.7233 71.4584C21.7181 71.4324 20.7103 71.4115 19.7052 71.3906C19.7052 71.375 19.7052 71.3568 19.7026 71.3411C19.4005 71.375 19.0906 71.3724 18.7989 71.4506C18.2208 71.6018 17.8589 72.0997 17.9344 72.6264C17.963 72.8219 18.0542 73.0148 18.1453 73.1921C18.4734 73.8256 18.8146 74.4513 19.1505 75.0796C19.4708 75.6792 19.7937 76.2762 20.1088 76.8784C20.3171 77.2773 20.6322 77.5406 21.0723 77.611C21.7598 77.7231 22.3483 77.5536 22.7572 76.9358C23.0306 76.5213 23.3275 76.1198 23.6139 75.7131C24.1999 74.8788 24.7884 74.0498 25.3665 73.2103C25.6686 72.775 25.6217 72.3318 25.2545 71.9485C24.9811 71.6644 24.6321 71.5445 24.2493 71.5236H24.2467ZM50.3399 33.495C50.3164 33.4898 50.293 33.4846 50.2696 33.482C50.2826 33.4976 50.2982 33.5107 50.3112 33.5263C50.3217 33.5159 50.3321 33.508 50.3399 33.4976V33.495ZM111.352 50.2295C110.211 47.7554 108.432 45.8653 106.052 44.541C105.82 44.4106 105.586 44.2855 105.323 44.1421C105.456 44.0508 105.555 43.9804 105.656 43.9153C106.451 43.4069 107.18 42.8203 107.818 42.119C109.096 40.7191 109.708 39.061 109.737 37.1735C109.747 36.5139 109.716 35.8596 109.604 35.2104C109.458 34.3631 109.292 33.5211 109.133 32.679C109.107 32.679 109.081 32.679 109.055 32.679C109.034 32.7859 109.01 32.8902 108.995 32.9971C108.901 33.6462 108.823 34.2954 108.714 34.9419C108.518 36.0968 108.172 37.2048 107.664 38.2633C106.784 40.0908 105.516 41.6367 104.133 43.0914C103.336 43.9283 102.5 44.7234 101.68 45.5368C101.62 45.5968 101.547 45.6463 101.44 45.7324C101.177 45.0597 100.927 44.421 100.675 43.7745C100.589 43.8032 100.524 43.8214 100.464 43.8449C99.1669 44.3923 97.8336 44.8095 96.43 44.9659C95.6644 45.0519 94.8988 45.0728 94.1306 44.9815C93.0238 44.8486 91.9587 44.567 90.9223 44.1551C90.8468 44.1264 90.7635 44.1212 90.6306 44.0951C90.8832 44.6843 91.115 45.211 91.3312 45.7428C91.3832 45.8731 91.4093 46.0296 91.3963 46.1677C91.3572 46.5588 91.2921 46.9498 91.227 47.4139C91.1072 47.3252 91.0239 47.2731 90.9536 47.2079C89.6124 45.9435 88.2609 44.6896 87.0214 43.3209C86.0162 42.2129 85.0527 41.0736 84.1881 39.8535C83.0501 38.2476 82.0814 36.5557 81.485 34.6656C81.4668 34.6056 81.4303 34.5482 81.3913 34.4674C81.0918 35.6197 81.2142 37.7966 81.7611 39.4416C82.6829 42.2129 84.4407 44.2698 87.1177 45.6072C86.9537 45.6672 86.8625 45.7011 86.7714 45.735C86.3912 45.8783 86.0032 46.0087 85.6282 46.1677C84.7766 46.5275 84.011 47.028 83.3522 47.6798C82.5605 48.4671 81.9668 49.3926 81.6152 50.4459C81.196 51.6998 80.8262 52.9694 80.4824 54.2469C80.2585 55.0759 80.1569 55.931 80.0944 56.7887C80.0397 57.5656 80.0736 58.3269 80.2767 59.0751C80.3783 59.4505 80.5475 59.7972 80.8158 60.0814C81.1204 60.3995 81.4824 60.5637 81.9381 60.4672C82.0683 59.719 82.1829 58.9943 82.3209 58.2747C82.6985 56.309 83.0996 54.3486 83.6673 52.4298C84.0787 51.0376 84.5735 49.6794 85.2141 48.3759C85.2896 48.2195 85.373 48.1465 85.5526 48.1777C85.8521 48.2299 86.1542 48.2664 86.4563 48.3133C86.6281 48.3394 86.8 48.3759 86.9797 48.4072C86.9589 48.4932 86.9484 48.5375 86.9354 48.5792C86.4745 49.9766 86.0136 51.374 85.55 52.7687C85.2271 53.7463 84.8938 54.7188 84.5761 55.699C84.4172 56.1891 84.7271 56.5541 85.2375 56.515C85.4172 56.502 85.5995 56.4941 85.7792 56.4941C87.2844 56.4889 88.7895 56.4889 90.2947 56.4785C91.516 56.4681 92.7374 56.4498 93.9587 56.4264C94.4222 56.4185 94.6384 56.1917 94.6514 55.7355C94.6748 54.8309 94.7009 53.9262 94.7165 53.019C94.7451 51.5825 94.7608 50.146 94.7946 48.7096C94.7998 48.5036 94.7269 48.4019 94.5472 48.3263C94.0889 48.1308 93.6384 47.9196 93.1853 47.7137C92.9926 47.6251 92.7999 47.539 92.6436 47.4686V46.0061C94.9613 46.8091 97.2269 46.5379 99.4872 45.9253C99.7424 46.4571 99.982 46.9524 100.237 47.4843C100.071 47.5182 99.9403 47.5442 99.8101 47.5677C98.8753 47.7267 97.9378 47.8832 97.0029 48.0474C96.6331 48.1126 96.4821 48.282 96.4769 48.6366C96.4586 49.7576 96.4456 50.8786 96.4326 51.9996C96.417 53.2223 96.4066 54.445 96.3909 55.6677C96.3857 55.9962 96.6045 56.2543 96.9352 56.2882C97.0368 56.2986 97.1383 56.2934 97.2399 56.2934C100.183 56.2647 103.123 56.236 106.065 56.2074C106.326 56.2074 106.586 56.2074 106.846 56.1943C106.969 56.1891 107.096 56.1735 107.211 56.1318C107.573 56.0066 107.729 55.712 107.648 55.334C107.628 55.2349 107.607 55.1333 107.583 55.0368C107.021 52.7322 106.458 50.4276 105.899 48.1204C105.875 48.0239 105.87 47.9249 105.854 47.8023C106.279 47.6616 106.682 47.5208 107.091 47.3956C107.367 47.3096 107.404 47.3252 107.537 47.6016C107.849 48.2533 108.172 48.9025 108.453 49.5699C109.229 51.4104 109.776 53.3214 110.135 55.2845C110.273 56.0379 110.375 56.8018 110.437 57.5656C110.484 58.1496 110.44 58.7388 110.432 59.3254C110.427 59.6173 110.37 59.9119 110.406 60.1961C110.443 60.4959 110.711 60.6393 111.013 60.6002C111.281 60.5663 111.484 60.4568 111.568 60.1779C111.599 60.071 111.656 59.9693 111.698 59.865C112.266 58.4598 112.482 56.9895 112.503 55.4878C112.51 55.0264 112.443 54.5623 112.401 54.1009C112.276 52.7478 111.922 51.4496 111.357 50.219L111.352 50.2295ZM109.169 60.0527C108.909 59.9354 108.635 59.8833 108.344 59.9093C108.063 59.9354 107.781 59.9537 107.497 59.951C106.774 59.9406 106.052 59.9145 105.328 59.8937C104.604 59.8728 103.883 59.852 103.159 59.8337C101.961 59.8077 100.763 59.7842 99.5653 59.7607C99.068 59.7503 98.5706 59.7503 98.0732 59.7373C97.3831 59.719 97.3545 59.7373 97.1878 60.4125C97.1826 60.4333 97.18 60.4568 97.1748 60.4803C97.0315 61.192 97.0914 61.9011 97.2138 62.605C97.2867 63.0247 97.3935 63.4366 97.4899 63.872C96.4951 63.9372 95.529 64.0727 94.542 64.1092C94.555 64.0284 94.555 63.9945 94.5629 63.9632C94.7946 63.2307 94.8467 62.4772 94.7946 61.7134C94.7634 61.265 94.6123 60.8531 94.3675 60.4751C94.2556 60.3004 94.1071 60.2196 93.8858 60.2222C93.24 60.2326 92.5967 60.2222 91.9509 60.2196C90.8546 60.2117 89.7583 60.1987 88.6619 60.1883C87.3833 60.1752 86.1047 60.1648 84.8261 60.1466C84.6516 60.1466 84.5188 60.2144 84.4146 60.3447C84.2428 60.5585 84.1777 60.7983 84.2454 61.0721C84.3105 61.3432 84.4329 61.583 84.6126 61.7916C84.7376 61.935 84.7532 62.081 84.735 62.2609C84.6204 63.3506 84.4719 64.4377 84.4173 65.5301C84.3548 66.7606 84.3521 67.9963 84.5396 69.2242C84.623 69.7691 84.9303 70.0063 85.4745 69.9359C86.0683 69.8577 86.662 69.7743 87.2609 69.7534C88.188 69.7248 89.1177 69.7195 90.0421 69.7613C90.6697 69.7873 91.2947 69.9099 91.9223 69.9881C92.0577 70.0037 92.1931 70.0298 92.3259 70.0246C92.6697 70.0141 92.9171 69.7925 92.9796 69.451C93.1332 68.6063 93.2816 67.7617 93.4327 66.917C93.4874 66.6094 93.5446 66.3043 93.6045 65.9759C95.6149 66.0958 97.5706 65.9628 99.5601 65.5144C99.5497 65.6969 99.5497 65.8325 99.5289 65.9628C99.3518 67.123 99.1825 68.2857 98.9872 69.4432C98.9456 69.6883 99.0263 69.8369 99.1982 69.9646C99.3857 70.1054 99.5992 70.1679 99.8388 70.1184C101.354 69.8056 102.893 69.7899 104.43 69.7508C105.117 69.7326 105.805 69.7769 106.492 69.7925C106.672 69.7978 106.854 69.8082 107.034 69.7925C107.354 69.7639 107.604 69.5344 107.633 69.2451C107.703 68.536 107.763 67.8268 107.826 67.1203C107.883 66.466 107.932 65.8142 107.99 65.1599C108.07 64.237 108.156 63.3141 108.242 62.3912C108.263 62.1566 108.294 61.922 108.32 61.6821C108.477 61.6195 108.635 61.5804 108.768 61.497C108.987 61.3614 109.219 61.2259 109.388 61.0382C109.716 60.681 109.607 60.243 109.161 60.0449L109.169 60.0527ZM86.2349 57.2371C86.0917 57.2371 85.9406 57.2606 85.8026 57.3049C85.4797 57.4092 85.2245 57.7585 85.2427 58.0375C85.2636 58.3555 85.5032 58.6397 85.8573 58.7205C86.0657 58.7675 86.2818 58.7883 86.4953 58.7909C88.2687 58.8144 90.0421 58.83 91.8155 58.8483C93.9509 58.8717 96.0889 58.9004 98.2242 58.9187C100.146 58.9343 102.068 58.9395 103.992 58.9526C104.737 58.9578 105.484 58.9812 106.229 58.9838C106.617 58.9838 106.995 58.9265 107.305 58.6501C107.669 58.3243 107.628 57.8081 107.201 57.5708C107.068 57.4978 106.904 57.4483 106.753 57.4431C105.893 57.4144 105.037 57.3962 104.177 57.3883C101.419 57.3623 98.6591 57.344 95.9014 57.3232C93.2113 57.3023 90.5213 57.2788 87.8286 57.258C87.8286 57.2502 87.8286 57.245 87.8286 57.2371C87.2974 57.2371 86.7662 57.2319 86.2349 57.2397V57.2371ZM106.758 70.9605C106.557 70.9318 106.354 70.9136 106.151 70.9057C104.753 70.8614 103.352 70.8223 101.951 70.7832C101.951 70.7754 101.951 70.7702 101.951 70.7623C101.826 70.7623 101.701 70.7571 101.578 70.7623C101.182 70.778 100.826 70.8901 100.526 71.1664C100.154 71.508 100.071 71.9068 100.284 72.3605C100.323 72.4413 100.365 72.5221 100.409 72.6029C101.06 73.8204 101.735 75.0248 102.354 76.2553C102.906 77.3529 104.448 77.2434 104.977 76.4013C105.091 76.2188 105.221 76.0494 105.344 75.8721C106.107 74.7902 106.87 73.7109 107.628 72.629C107.885 72.2588 107.898 71.8599 107.654 71.5184C107.435 71.2134 107.133 71.0152 106.755 70.9631L106.758 70.9605ZM91.7999 71.242C91.3364 71.2186 90.8754 71.1925 90.4119 71.1795C89.4874 71.1508 88.5604 71.1273 87.6333 71.1013C87.6333 71.0961 87.6333 71.0908 87.6333 71.0856C87.3729 71.0856 87.1125 71.0908 86.8547 71.0856C86.5422 71.0778 86.2479 71.1325 85.9823 71.3046C85.4745 71.6331 85.248 72.1597 85.5552 72.7307C86.261 74.0342 86.9536 75.3429 87.6516 76.649C87.7713 76.8732 87.9302 77.0661 88.1619 77.1782C88.8182 77.5041 89.7218 77.4259 90.214 76.7064C90.7999 75.8486 91.4119 75.0066 92.0108 74.1567C92.3025 73.7396 92.602 73.3277 92.8806 72.9027C93.1592 72.4752 93.1332 72.0971 92.8363 71.7504C92.5629 71.4297 92.2192 71.2655 91.8025 71.2446L91.7999 71.242Z" fill="#EC3237"/>
    <path d="M29.593 63.4027C30.692 62.5763 31.6841 61.643 32.481 60.5089C33.5695 58.9604 34.1685 57.2502 34.2414 55.3549C34.2492 55.1333 34.2752 54.9091 34.2935 54.6875C34.4106 54.9873 34.4757 55.2819 34.5591 55.5738C35.02 57.172 35.7908 58.5902 37.0408 59.706C37.4861 60.1022 37.9809 60.4464 38.4731 60.7879C38.6475 60.9104 38.6944 61.0095 38.6684 61.2233C38.598 61.8177 38.546 62.4173 38.5277 63.0143C38.4965 64.0545 38.4783 65.0973 38.4835 66.1375C38.4913 67.8034 38.5902 69.4667 38.8246 71.1143C38.9991 72.3448 39.2335 73.5675 39.4782 74.7876C39.7673 76.2136 40.2282 77.5771 41.0303 78.8076C41.6735 79.7957 42.4287 80.669 43.4521 81.2817C44.2359 81.7509 45.0849 82.0038 45.9911 82.0299C46.9807 82.0586 47.9155 81.8057 48.7931 81.3521C50.5665 80.4344 51.8191 79.0031 52.7253 77.259C54.017 74.7772 54.5091 72.1076 54.4701 69.3259C54.4571 68.3404 54.418 67.355 54.3946 66.3721C54.3946 66.2861 54.405 66.2001 54.4076 66.1401H56.6445C56.7357 67.1959 56.8268 68.197 56.9101 69.2007C56.983 70.0923 57.0482 70.9839 57.1211 71.8755C57.194 72.7776 57.2695 73.6796 57.345 74.5816C57.3815 75.0092 57.3763 75.4498 57.4726 75.8643C57.6836 76.7689 58.0169 77.6345 58.4804 78.4478C58.9283 79.2326 59.4804 79.9312 60.2174 80.4605C61.6314 81.4746 63.16 81.5841 64.7537 80.9584C66.087 80.437 67.1156 79.5089 68.014 78.427C68.7614 77.525 69.3317 76.5082 69.8942 75.4889C71.139 73.226 72.0869 70.8536 72.5712 68.3065C72.8889 66.6354 73.027 64.9487 72.9723 63.2489C72.9384 62.1852 72.8785 61.1242 72.7197 60.071C72.6936 59.8937 72.7457 59.7764 72.8811 59.659C73.1311 59.4453 73.3681 59.2185 73.5973 58.9864C74.9878 57.5682 76.2326 56.0379 77.1753 54.2756C78.0477 52.6462 78.5607 50.9151 78.6883 49.0746C78.7716 47.8857 78.6622 46.6996 78.407 45.5368C78.0242 43.7927 77.355 42.1555 76.5086 40.5835C75.5165 38.7429 74.3108 37.051 72.9983 35.432C72.8004 35.1896 72.6051 34.9445 72.4046 34.6968C72.4541 34.6343 72.4853 34.5873 72.5218 34.5456C73.316 33.5993 74.0348 32.6008 74.6832 31.5502C76.6857 28.307 77.9097 24.8188 78.0321 20.9761C78.0893 19.245 77.9123 17.54 77.4982 15.8611C76.6284 12.3312 74.8785 9.28362 72.3681 6.67138C70.8291 5.07067 69.0739 3.7437 67.1208 2.68786C64.1209 1.06108 60.9048 0.205976 57.5065 0.0234842C56.1341 -0.0495123 54.7722 0.0599825 53.4154 0.273758C51.5353 0.568351 49.7072 1.06108 47.9494 1.79886C44.9364 3.06588 42.3506 4.90904 40.2673 7.44567C39.2699 8.66054 38.4548 9.9823 37.822 11.4162C36.7726 13.799 36.283 16.2939 36.3142 18.9009C36.3351 20.5173 36.5486 22.1023 36.9366 23.6665C37.5252 26.0441 38.4861 28.2653 39.7048 30.3848C40.3662 31.5319 41.1058 32.6243 41.8896 33.6957C41.8323 33.7766 41.7829 33.8548 41.7282 33.9226C40.8558 34.9784 40.0329 36.0681 39.2751 37.21C37.4783 39.9083 36.0356 42.7786 35.0851 45.8836C34.4523 47.9483 34.0643 50.0496 34.0955 52.2186C34.0955 52.302 34.0955 52.3855 34.0955 52.4689L34.0304 52.4819C33.3924 49.4239 31.9784 46.7152 30.2935 44.1316C30.343 44.0691 30.3769 44.0248 30.4159 43.983C31.5722 42.6847 32.5695 41.277 33.3664 39.731C34.481 37.5698 35.1346 35.2886 35.1867 32.8433C35.2205 31.2686 34.9966 29.7331 34.5044 28.2393C33.8976 26.3961 32.9211 24.7693 31.6242 23.3328C30.7467 22.363 29.7415 21.5418 28.6373 20.8457C27.2884 19.9985 25.8327 19.391 24.2937 18.9843C23.1661 18.6871 22.0177 18.4994 20.8537 18.4603C20.088 18.4343 19.3146 18.4916 18.5516 18.5855C17.6454 18.695 16.7418 18.8462 15.8512 19.0443C12.8096 19.7169 10.0544 20.9683 7.74718 23.1165C6.77064 24.0237 5.94514 25.0509 5.27849 26.2058C4.15351 28.1532 3.61186 30.2701 3.47644 32.5017C3.40613 33.6697 3.47644 34.835 3.63529 35.9899C3.85404 37.5724 4.22382 39.1183 4.76548 40.62C5.12224 41.608 5.52327 42.5805 5.91649 43.5555C5.97899 43.7093 5.9842 43.811 5.87483 43.9518C4.79933 45.3361 3.78633 46.7673 2.88531 48.2742C1.98429 49.7811 1.18222 51.3374 0.635361 53.0138C0.117144 54.5988 -0.1641 56.2126 0.0806865 57.8863C0.20308 58.7205 0.46349 59.5104 0.859315 60.2561C1.33326 61.1451 1.97127 61.9037 2.72646 62.5633C2.86187 62.6806 2.93739 62.8005 2.9426 62.9934C2.97385 64.0467 3.01552 65.0999 3.06499 66.1505C3.11708 67.282 3.17437 68.4134 3.24728 69.5423C3.31238 70.546 3.40613 71.5497 3.47644 72.556C3.55457 73.7213 3.7056 74.8762 4.02331 76.0025C4.26809 76.8654 4.57017 77.7048 5.10141 78.44C5.53108 79.0344 6.06232 79.4854 6.80449 79.6366C7.46073 79.7696 8.08571 79.6366 8.69768 79.4177C9.34871 79.1804 9.94765 78.8389 10.518 78.4478C11.1039 78.0464 11.7237 77.6736 12.1794 77.1183C12.6325 76.5708 13.0726 76.0051 13.4502 75.4054C14.8251 73.2182 15.523 70.8041 15.7548 68.244C15.7782 67.9781 15.8095 67.7095 15.8381 67.4123C16.2704 67.4593 16.6793 67.5036 17.1168 67.5479C17.1011 67.8347 17.0855 68.0823 17.0725 68.3274C17.0334 68.9713 16.997 69.6153 16.9527 70.2566C16.9032 70.9996 16.8459 71.7452 16.7938 72.4882C16.7444 73.1764 16.6871 73.8621 16.648 74.5503C16.6376 74.7146 16.648 74.8945 16.7027 75.0483C16.8928 75.5801 17.0829 76.1146 17.3173 76.6255C17.6141 77.2773 18.0126 77.8717 18.5542 78.3514C19.1402 78.8702 19.8276 79.1204 20.6089 79.0787C21.0958 79.0527 21.562 78.9171 22.0151 78.7294C22.8692 78.3722 23.6192 77.8508 24.3327 77.2773C24.9056 76.8185 25.4473 76.3335 25.8744 75.7183C27.153 73.8777 28.0801 71.8808 28.6477 69.7169C29.1451 67.8138 29.3404 65.8716 29.3352 63.9111C29.3352 63.6869 29.3925 63.5409 29.5774 63.4027H29.593ZM50.4962 72.642C49.5639 74.2844 48.6317 75.9242 47.7046 77.5693C47.465 77.9968 47.1369 78.281 46.6473 78.3983C46.051 78.5417 45.3271 78.2262 45.0667 77.6866C44.8557 77.2486 44.6656 76.8028 44.4703 76.357C43.8714 74.9909 43.2933 73.6144 42.6735 72.2562C42.1969 71.2082 43.0485 70.0871 44.0484 70.1367C44.1839 70.1445 44.3193 70.1367 44.4547 70.1367C44.4547 70.1419 44.4547 70.1471 44.4547 70.1549C45.5927 70.2018 46.7333 70.2488 47.8713 70.2983C48.3322 70.3192 48.7957 70.3426 49.2567 70.3661C50.0197 70.4078 50.6499 71.0048 50.7124 71.7687C50.7384 72.0789 50.6473 72.3735 50.4936 72.6446L50.4962 72.642ZM67.7224 72.8975C66.9281 74.3835 66.1443 75.8747 65.3579 77.3659C65.2146 77.6371 65.087 77.9134 64.9308 78.1767C64.535 78.8519 63.824 79.1074 63.1287 78.8337C62.7277 78.6747 62.4595 78.3722 62.298 77.9838C61.8111 76.8158 61.3345 75.6427 60.8554 74.4695C60.5585 73.7474 60.2616 73.0278 59.9674 72.3057C59.6158 71.4454 59.996 70.486 60.8267 70.1575C60.9387 70.1132 61.0663 70.0923 61.1861 70.0793C61.2981 70.0663 61.4126 70.0767 61.5559 70.0767C62.3579 70.121 63.1938 70.1653 64.0272 70.2097C64.8839 70.254 65.7407 70.2983 66.5974 70.3426C67.3161 70.3791 67.9255 70.9918 67.9906 71.7269C68.0271 72.1493 67.9229 72.5273 67.725 72.8975H67.7224ZM70.6182 56.3612C70.3812 56.7209 70.0374 56.9686 69.6364 57.112C69.4099 57.1928 69.3317 57.3049 69.3213 57.55C69.2718 58.4989 69.1937 59.4453 69.126 60.3916C69.0583 61.3275 68.9906 62.2635 68.9255 63.1994C68.8317 64.5081 68.7432 65.8142 68.6495 67.1229C68.6364 67.3028 68.6182 67.4827 68.5922 67.6626C68.5375 68.0406 68.1885 68.3274 67.7641 68.317C67.2797 68.3039 66.7953 68.2518 66.3084 68.2388C65.2902 68.2101 64.2746 68.1892 63.2563 68.1788C62.4048 68.171 61.5689 68.3013 60.7382 68.476C60.1496 68.6011 59.7356 68.3091 59.6835 67.7043C59.6106 66.8935 59.5533 66.0801 59.4882 65.2694C59.4179 64.3778 59.3476 63.4888 59.2747 62.5972C59.2721 62.5633 59.2564 62.532 59.233 62.4616C58.6601 62.5294 58.0976 62.6962 57.5247 62.777C56.9544 62.8579 56.3867 62.9543 55.8138 63.0039C55.2279 63.056 54.6394 63.0769 54.0534 63.0821C53.4805 63.0873 52.905 63.0534 52.2983 63.0325C52.2566 63.2802 52.2071 63.52 52.1733 63.7625C51.9832 65.0816 51.7905 66.4008 51.6108 67.72C51.517 68.4082 51.0301 68.6272 50.4754 68.4968C49.1134 68.1814 47.7333 68.0875 46.3375 68.0928C45.2047 68.098 44.0797 68.171 42.9625 68.3613C42.5823 68.4265 42.249 68.3691 41.9886 68.0406C41.8115 67.8164 41.8115 67.5505 41.7855 67.3002C41.5902 65.5405 41.5771 63.7755 41.6501 62.0106C41.7074 60.5767 41.8089 59.1455 42.0198 57.7246C42.0433 57.563 41.9834 57.4457 41.8896 57.3206C41.5615 56.8826 41.3766 56.3977 41.4105 55.8372C41.4287 55.54 41.5667 55.3184 41.7646 55.1281C41.8271 55.0681 41.9469 55.0472 42.0433 55.042C42.5407 55.0212 43.038 55.0029 43.5354 54.9951C45.413 54.9638 47.2906 54.9351 49.1681 54.9065C50.6941 54.883 52.2227 54.8621 53.7487 54.8309C53.9831 54.8256 54.142 54.8856 54.2956 55.0811C55.0326 56.0196 55.2253 57.0677 54.9935 58.2174C54.9779 58.2956 54.9597 58.3712 54.9414 58.4494C54.9232 58.5276 54.9076 58.6032 54.8737 58.7492C55.582 58.8013 56.2617 58.8483 56.9857 58.903C56.6237 57.3649 56.6862 55.8997 57.4596 54.5258C57.8554 54.5258 58.2278 54.518 58.6002 54.5258C58.9153 54.5336 59.2304 54.5623 59.5481 54.5728C60.3502 54.6014 61.1522 54.6197 61.9543 54.651C63.2407 54.7005 64.5298 54.7631 65.8162 54.8126C66.436 54.8361 67.0583 54.8439 67.6781 54.8647C67.9724 54.8752 68.264 54.9065 68.5583 54.9091C68.7614 54.9091 68.9619 54.8804 69.1651 54.8621C69.5296 54.8282 69.8864 54.8256 70.2275 54.9873C70.8239 55.2688 70.9853 55.8033 70.6208 56.3586L70.6182 56.3612ZM70.7458 52.9329C70.4697 53.2823 70.0895 53.4543 69.6572 53.4804C69.1963 53.5091 68.7302 53.4987 68.2666 53.5013C67.9281 53.5013 67.587 53.4934 67.2484 53.4908C66.9099 53.4882 66.5688 53.4908 66.2302 53.4908V53.483C65.2928 53.483 64.3527 53.4882 63.4152 53.483C60.5793 53.4622 57.7408 53.4387 54.905 53.4126C54.306 53.4074 53.7071 53.3787 53.1081 53.3761C51.4233 53.3657 49.741 53.3631 48.0562 53.3579C46.7775 53.3527 45.4989 53.3501 44.2229 53.3448C43.9078 53.3448 43.5901 53.3501 43.2776 53.324C42.9469 53.2953 42.637 53.2067 42.3948 52.946C42.1084 52.6357 42.0928 52.2317 42.3662 51.9058C42.6162 51.6034 42.9521 51.4756 43.3245 51.473C44.0484 51.4678 44.7698 51.4991 45.4937 51.5095C46.1161 51.5173 46.7385 51.5199 47.3609 51.5199C49.7358 51.5278 52.1108 51.5278 54.4857 51.5408C56.7799 51.5538 59.0742 51.5799 61.3684 51.5955C62.2954 51.6034 63.2225 51.5955 64.1496 51.6034C66.0375 51.619 67.9229 51.6425 69.8109 51.6581C70.1416 51.6607 70.4307 51.7494 70.6728 51.9866C70.9463 52.2551 70.9827 52.6383 70.7458 52.9355V52.9329ZM50.4337 12.4538C50.4337 12.4538 50.4337 12.4538 50.4363 12.4538C50.4832 11.0616 50.5275 9.66946 50.5769 8.27731C50.5874 7.99575 50.59 7.70898 50.6446 7.43263C50.8972 6.11348 52.0144 5.20102 53.3529 5.24013C54.2904 5.26881 55.2279 5.34962 56.1654 5.40959C57.7122 5.50865 59.259 5.61033 60.8059 5.712C61.2564 5.74068 61.7121 5.7485 62.1574 5.81367C63.5949 6.03006 64.5063 7.26839 64.4594 8.54062C64.4256 9.44525 64.3917 10.3499 64.3501 11.2571C64.2876 12.6701 64.2225 14.0857 64.1548 15.4988C64.1209 16.2339 64.0871 16.9691 64.0454 17.7043C63.9647 19.1434 62.7798 20.267 61.3345 20.2461C60.6002 20.2357 59.8658 20.1836 59.1314 20.1471C57.5273 20.0689 55.9232 19.9906 54.319 19.9072C53.7435 19.8785 53.1628 19.8733 52.5925 19.7899C51.2228 19.5918 50.2592 18.4447 50.2905 17.0682C50.3243 15.5274 50.3842 13.9893 50.4337 12.4511V12.4538ZM37.2387 50.4432C37.4627 49.1032 37.796 47.7919 38.1319 46.4754C38.3246 45.7193 38.4574 44.9502 38.6475 44.1942C39.0407 42.6091 39.5876 41.0762 40.348 39.6241C41.0042 38.3727 41.8297 37.2413 42.8297 36.2454C43.5198 35.5572 44.2698 34.9393 45.0823 34.397C45.2489 34.2849 45.413 34.165 45.6057 34.0294C45.5041 33.9512 45.439 33.8939 45.3635 33.8496C43.3844 32.6425 41.9001 30.9923 40.9548 28.8702C40.4209 27.6761 40.1162 26.4143 39.9183 25.1213C39.6866 23.6118 39.7022 22.0971 39.7412 20.5824C39.7595 19.9046 39.8402 19.2294 39.8949 18.5542C39.9001 18.4864 39.9261 18.4238 39.9574 18.2935C40.0069 18.429 40.0433 18.5099 40.0642 18.5933C40.7464 21.4036 41.8245 24.0602 43.1917 26.602C44.2984 28.659 45.5875 30.5986 47.0041 32.4548C48.0952 33.8861 49.2541 35.2626 50.4572 36.6C50.5144 36.6651 50.5822 36.7225 50.6785 36.8137C50.9806 36.2793 51.267 35.7709 51.5665 35.2365C51.3946 35.0045 51.2202 34.7698 51.0483 34.5352C50.8035 34.1989 50.5587 33.86 50.3139 33.5211C50.3009 33.5054 50.2853 33.4924 50.2723 33.4768C50.2957 33.482 50.3191 33.4872 50.3426 33.4898C50.6629 33.628 50.9832 33.7661 51.3061 33.9043C52.642 34.4805 54.017 34.9158 55.4649 35.0775C55.9909 35.1374 56.5221 35.1948 57.0508 35.1948C58.7669 35.1948 60.4179 34.848 62.0012 34.1833C62.3657 34.0294 62.7199 33.8548 63.0793 33.6879C63.16 33.6514 63.2407 33.6175 63.3709 33.5602C63.3241 33.7766 63.2902 33.9512 63.2459 34.1233C63.1548 34.4857 63.0636 34.8454 62.9647 35.2078C62.9152 35.3903 62.9465 35.5285 63.0949 35.6614C63.4569 35.9821 63.8058 36.3184 64.1808 36.6677C64.2824 36.5583 64.3709 36.4748 64.4464 36.3784C65.1001 35.5259 65.7589 34.676 66.3969 33.8131C67.4854 32.3375 68.5166 30.8228 69.4593 29.2482C70.777 27.0478 71.9306 24.7693 72.7327 22.3265C73.165 21.0126 73.4957 19.6778 73.6181 18.2961C73.6233 18.2439 73.6441 18.1944 73.717 18.1397C73.79 18.5516 73.8655 18.9635 73.9332 19.3754C74.165 20.7858 74.2769 22.2066 74.2118 23.6353C74.0816 26.4952 73.2092 29.0891 71.4359 31.3599C70.4671 32.5982 69.3369 33.6671 68.0844 34.6134C68.0219 34.6603 67.9594 34.7099 67.8995 34.7646C67.876 34.7855 67.8578 34.8168 67.8161 34.8767C67.9568 34.9862 68.0948 35.0983 68.238 35.2026C70.2301 36.6704 71.9853 38.3753 73.3473 40.4531C74.3603 41.9991 75.0764 43.6806 75.4436 45.5003C75.6545 46.5457 75.7821 47.6016 75.7561 48.6652C75.7274 49.7498 75.6207 50.8265 75.3993 51.8953C75.1649 53.0294 74.8472 54.1348 74.4488 55.2167C74.3212 55.5608 74.079 55.7016 73.6806 55.6833C73.3733 55.6703 73.1728 55.4748 73.066 55.1463C72.9514 54.7943 73.0452 54.4502 73.079 54.1061C73.1415 53.4778 73.2223 52.8495 73.2665 52.2186C73.3212 51.4287 73.3681 50.6388 73.3733 49.8462C73.3785 49.1919 73.3316 48.5349 73.2874 47.8805C73.2509 47.3617 73.191 46.8456 73.1285 46.3294C73.0087 45.3048 72.7874 44.3011 72.5061 43.313C72.1989 42.2363 71.8213 41.1805 71.3551 40.1612C71.3083 40.0595 71.251 39.963 71.1885 39.8431C70.5583 40.0882 69.9437 40.3306 69.3135 40.5757C69.3265 40.7034 69.3291 40.8051 69.3474 40.9015C69.6911 42.5935 70.04 44.2881 70.3864 45.98C70.5921 46.9863 70.7744 48.0005 70.9984 49.0016C71.139 49.6325 70.5609 50.1904 70.04 50.1695C69.4411 50.146 68.8422 50.1721 68.2406 50.1773C65.6834 50.1982 63.1261 50.2164 60.5715 50.2373C59.7226 50.2451 58.8736 50.2425 58.0273 50.2868C57.5065 50.3155 57.0429 49.8723 57.0976 49.33C57.194 48.3759 57.2383 47.4139 57.3007 46.4545C57.3268 46.0817 57.345 45.7089 57.3711 45.3387C57.4362 44.3454 57.5065 43.3548 57.5716 42.3615C57.6211 41.6289 57.6627 40.8937 57.7122 40.1612C57.7408 39.7388 57.9752 39.4807 58.3684 39.3478C59.3945 38.9984 60.4231 38.6465 61.4491 38.2971C61.5559 38.2606 61.66 38.2189 61.8111 38.1642C61.5741 37.648 61.3449 37.1526 61.1001 36.6234C60.1913 36.8893 59.2929 37.1318 58.3528 37.1918C57.4127 37.2517 56.4805 37.1996 55.556 37.0223C54.6315 36.8424 53.7461 36.5374 52.8425 36.1463C52.5196 36.5713 52.1967 36.9988 51.853 37.4551C52.1654 37.6297 52.4493 37.7888 52.7331 37.9452C53.379 38.2971 54.0196 38.6569 54.6706 38.9984C54.8946 39.1157 54.9909 39.2461 54.9883 39.5198C54.9571 42.8464 54.9414 46.1755 54.9284 49.5021C54.9284 49.8879 54.8268 50.1982 54.4597 50.365C54.3399 50.4198 54.1993 50.4432 54.0664 50.4458C53.3217 50.4563 52.5743 50.4511 51.8295 50.4563C51.366 50.4615 50.9025 50.485 50.4389 50.4876C50.1004 50.4876 49.7619 50.4641 49.4233 50.4667C48.9936 50.4667 48.564 50.4928 48.1343 50.4954C47.038 50.5006 45.939 50.4954 44.8427 50.498C44.3453 50.498 43.8453 50.4823 43.3505 50.511C42.7828 50.5449 42.2698 50.0105 42.4834 49.3483C43.1552 47.2601 43.7932 45.1614 44.4443 43.0654C44.8219 41.8453 45.1995 40.6226 45.5771 39.4025C45.6057 39.3087 45.6187 39.2122 45.6526 39.0662C45.1422 39.0193 44.6656 38.9776 44.176 38.9306C44.0224 39.293 43.874 39.6189 43.7464 39.9552C43.3141 41.0971 42.874 42.2389 42.4625 43.3886C41.861 45.0702 41.3219 46.7752 40.8845 48.5088C40.5694 49.7576 40.2621 51.009 40.0017 52.2708C39.7595 53.4413 39.5824 54.6275 39.3793 55.8085C39.3532 55.9519 39.3376 56.0979 39.3168 56.2439C39.2803 56.5019 39.2152 56.5515 38.9626 56.5332C37.9262 56.4628 37.4392 55.9519 37.1684 55.0524C37.033 54.604 36.9783 54.1217 36.9523 53.6499C36.8924 52.5706 37.0564 51.5069 37.2335 50.4458L37.2387 50.4432ZM13.2236 29.6914C13.2939 29.2716 13.5023 28.9353 13.7783 28.6225C14.7965 27.4676 15.8095 26.3101 16.8251 25.1525C17.4735 24.4121 18.1219 23.6718 18.7704 22.9314C18.8303 22.8636 18.8849 22.7958 18.9657 22.6967C19.3641 22.0997 20.1063 21.1612 20.8771 21.2629C21.4552 21.3385 21.6349 22.0189 22.6375 23.9507C23.489 25.5905 23.9473 26.4561 24.6687 27.5406C25.0332 28.088 25.3666 28.6564 25.7468 29.196C26.3353 30.0303 26.6504 30.3718 26.7389 31.0053C26.7754 31.2738 26.8535 31.8291 26.4968 32.288C26.0515 32.8589 25.2754 32.8328 25.1765 32.8276C24.7546 32.8041 24.3718 32.7833 23.989 32.7624C22.0802 32.6555 20.1714 32.5487 18.2626 32.4418C17.2808 32.387 16.2965 32.3323 15.3147 32.2853C13.9814 32.2228 13.0049 31.0131 13.2236 29.694V29.6914ZM5.01547 59.3253C4.91131 59.7425 4.79152 60.1544 4.67694 60.5689C4.65871 60.6315 4.62485 60.6914 4.59881 60.754C4.2759 60.7957 4.03893 60.6471 3.82539 60.4568C3.5129 60.1805 3.30718 59.8285 3.16135 59.4453C2.94521 58.8822 2.8176 58.2982 2.78635 57.696C2.77073 57.3909 2.73427 57.0859 2.73948 56.7809C2.75511 55.5165 2.95041 54.2808 3.36447 53.0868C3.81758 51.7702 4.32799 50.4745 4.99203 49.2466C5.67691 47.9796 6.54408 46.8508 7.6352 45.9122C8.48414 45.1823 9.43464 44.6192 10.5388 44.3532C10.6013 44.3376 10.6638 44.3141 10.7627 44.2828C10.5726 44.056 10.4086 43.8449 10.2315 43.6467C9.3461 42.6404 8.56227 41.5637 7.89301 40.4036C7.02324 38.8941 6.34617 37.3091 6.09097 35.565C5.87483 34.0842 6.0467 32.6555 6.63002 31.279C6.69512 31.1278 6.77324 30.9818 6.90605 30.8463C6.95293 31.1852 7.00241 31.5241 7.04928 31.863C7.23157 33.2004 7.58052 34.4987 8.0154 35.7735C8.70028 37.7862 9.59089 39.7023 10.7028 41.5142C11.5804 42.9481 12.5804 44.2881 13.7965 45.456C13.9424 45.5968 14.096 45.7297 14.2731 45.8914C14.4762 45.6959 14.6663 45.5108 14.885 45.2944C14.3746 44.653 13.8799 44.0326 13.3877 43.4121C13.4007 43.3939 13.4163 43.3756 13.4293 43.3574C13.7705 43.4929 14.1116 43.6311 14.4554 43.7667C15.7704 44.2907 17.1142 44.7208 18.5178 44.945C19.5516 45.1093 20.588 45.1171 21.6271 45.0128C22.4291 44.932 23.2026 44.726 23.9682 44.4862C24.0307 44.4653 24.0958 44.4523 24.1869 44.4314C24.3562 44.8225 24.5202 45.2031 24.6973 45.6098C24.7728 45.5551 24.8327 45.5108 24.89 45.4664C24.9083 45.4534 24.9213 45.4325 24.9395 45.4195C25.9837 44.567 26.6921 43.4538 27.3561 42.3041C28.2337 40.7842 29.1582 39.293 30.0123 37.7627C31.0097 35.9795 31.8638 34.1337 32.2857 32.1159C32.3638 31.7431 32.4159 31.3651 32.4784 30.9897C32.4966 30.9897 32.5122 30.9844 32.5305 30.9818C32.6216 31.3625 32.7232 31.7405 32.7987 32.1263C32.9471 32.8719 32.9862 33.6306 32.9862 34.3866C32.9862 35.5102 32.8352 36.6182 32.5279 37.7001C32.1633 38.988 31.6086 40.1794 30.7961 41.2483C29.9472 42.3667 28.8951 43.24 27.6478 43.8814C27.5488 43.9335 27.4499 43.9883 27.3509 44.043C27.3431 44.0482 27.3379 44.0613 27.3171 44.0925C27.5853 44.2881 27.8613 44.4784 28.1269 44.6791C29.8248 45.9592 31.0435 47.5964 31.7883 49.5881C32.1581 50.5788 32.3716 51.6008 32.4914 52.654C32.5904 53.5247 32.5878 54.3955 32.5149 55.261C32.3899 56.7001 32.0643 58.0948 31.4732 59.4192C31.3065 59.7894 31.119 60.1518 30.9263 60.5115C30.7623 60.8166 30.4368 60.9287 30.1191 60.814C29.8769 60.7253 29.7467 60.475 29.8066 60.1726C29.8743 59.8285 29.9654 59.4896 30.0409 59.1481C30.2206 58.3529 30.3248 57.5474 30.3639 56.734C30.3977 55.9988 30.4368 55.2636 30.4264 54.5284C30.4029 52.7348 30.1868 50.9672 29.5982 49.2596C29.5618 49.1528 29.5227 49.0459 29.4811 48.9416C29.3378 48.5792 29.3352 48.574 28.9394 48.6105C28.7389 48.6288 28.541 48.6705 28.2988 48.707C28.3639 49.1006 28.4186 49.4786 28.4863 49.8514C28.7233 51.1628 28.9655 52.4715 29.2076 53.7802C29.3561 54.591 29.5019 55.4018 29.6555 56.21C29.7415 56.6688 29.5462 56.953 29.0826 57.0207C29.0045 57.0312 28.9238 57.0312 28.8457 57.0312C25.5749 57.0312 22.3041 57.0312 19.0334 57.0312C18.9891 57.0312 18.9422 57.026 18.898 57.0312C18.3537 57.0885 18.0516 56.76 18.1662 56.1552C18.2548 55.6912 18.2808 55.2141 18.3381 54.7422C18.424 54.0122 18.51 53.2849 18.5933 52.5549C18.6714 51.8588 18.7469 51.1628 18.8225 50.4667C18.8954 49.7941 18.9657 49.1189 19.0438 48.4463C19.0777 48.1569 19.2704 47.9926 19.5724 47.9796C20.4656 47.9379 21.3562 47.8988 22.2495 47.8571C22.3146 47.8545 22.3797 47.844 22.4864 47.8336C22.4343 47.453 22.3875 47.0906 22.3328 46.6787C20.0464 47.002 17.8121 46.955 15.6506 45.9748C15.6012 46.345 15.5465 46.6657 15.5256 46.9889C15.5204 47.0593 15.6246 47.1558 15.7001 47.2079C16.1038 47.4791 16.5048 47.7554 16.9241 48.0005C17.1532 48.136 17.2261 48.2924 17.2001 48.5532C17.1272 49.2049 17.0803 49.8593 17.0204 50.511C16.9657 51.095 16.9084 51.6816 16.8537 52.2655C16.7704 53.1311 16.6871 53.9966 16.6038 54.8621C16.5569 55.3444 16.5204 55.8293 16.4631 56.3116C16.4163 56.687 16.2314 56.8487 15.8486 56.833C15.4189 56.8148 14.9918 56.7653 14.5647 56.7235C14.0153 56.6688 13.4658 56.6088 12.9137 56.5515C12.0934 56.4655 11.2757 56.382 10.4555 56.2986C9.93984 56.2465 9.42162 56.1995 8.9034 56.15C8.40862 56.1005 7.91384 56.064 7.42167 55.9936C7.27844 55.9727 7.1274 55.8815 7.01282 55.785C6.80189 55.6025 6.79147 55.4982 6.90605 55.248C7.1274 54.7631 7.35136 54.2808 7.57791 53.8011C8.46071 51.9266 9.3461 50.0548 10.2315 48.1803C10.2732 48.0891 10.3096 47.9952 10.3669 47.8597C9.88255 47.7372 9.42683 47.6172 8.96851 47.5025C8.83309 47.4686 8.76018 47.5494 8.70028 47.6563C8.54664 47.9327 8.37998 48.2038 8.23675 48.4854C7.39563 50.1512 6.86699 51.9318 6.40346 53.7281C5.9243 55.5895 5.48421 57.4587 5.02328 59.3253H5.01547ZM28.6425 58.8431C28.6608 59.1324 28.5097 59.3592 28.2519 59.5104C27.9889 59.6669 27.6999 59.7242 27.4056 59.7112C26.6947 59.6825 25.9837 59.6356 25.2754 59.5913C24.3848 59.5365 23.4942 59.4739 22.6036 59.4244C21.9161 59.3853 21.226 59.3619 20.5386 59.3227C19.536 59.2654 18.5334 59.2002 17.5282 59.1429C17.01 59.1116 16.4892 59.0881 15.971 59.0568C14.9215 58.9943 13.8746 58.9317 12.8278 58.8691C12.3773 58.8431 11.9242 58.817 11.4737 58.7935C10.4815 58.744 9.48672 58.6971 8.49456 58.6449C8.09873 58.6241 7.70551 58.6058 7.31229 58.5693C7.15865 58.5537 6.9998 58.512 6.85658 58.452C6.50242 58.3008 6.33836 58.0166 6.38523 57.6751C6.42429 57.3753 6.71856 57.0885 7.05449 57.0416C7.19771 57.0207 7.34875 57.039 7.49458 57.039C7.49458 57.0338 7.49458 57.0312 7.49458 57.026C8.55445 57.0911 9.61432 57.1589 10.6716 57.2215C11.1794 57.2528 11.6872 57.271 12.195 57.2997C13.2653 57.3623 14.3356 57.43 15.4085 57.49C16.0959 57.5291 16.786 57.55 17.4735 57.5891C18.3537 57.6386 19.2313 57.7038 20.1089 57.7559C20.8094 57.795 21.5099 57.8185 22.2078 57.8576C23.2234 57.915 24.2364 57.9801 25.252 58.0401C25.7832 58.0714 26.3119 58.0948 26.8431 58.1235C27.1921 58.1418 27.541 58.16 27.89 58.1887C27.9889 58.1965 28.0905 58.2252 28.1816 58.2617C28.4472 58.366 28.6191 58.5693 28.6373 58.8457L28.6425 58.8431ZM12.7913 72.7307C11.8981 73.982 11.0179 75.2438 10.1351 76.503C9.54922 77.3425 8.09613 77.3685 7.59354 76.4065C7.2524 75.7548 6.89824 75.1109 6.54929 74.4617C6.20294 73.8126 5.86701 73.1582 5.50504 72.5195C5.25765 72.0815 5.31494 71.521 5.81754 71.1404C6.16388 70.8797 6.5545 70.8145 6.97116 70.8353C7.78364 70.8718 8.59612 70.9136 9.4086 70.9396C10.0987 70.9631 10.7888 70.9657 11.4763 70.9813C11.8408 70.9892 12.195 71.0439 12.5049 71.2629C12.9632 71.5914 13.2158 72.131 12.7887 72.728L12.7913 72.7307ZM25.364 73.2077C24.7859 74.0446 24.1973 74.8762 23.6114 75.7105C23.325 76.1172 23.0307 76.5186 22.7547 76.9332C22.3458 77.551 21.7599 77.7205 21.0698 77.6084C20.6297 77.538 20.3146 77.2747 20.1063 76.8758C19.7912 76.2736 19.4683 75.6766 19.148 75.077C18.812 74.4487 18.4709 73.823 18.1428 73.1895C18.0516 73.0122 17.9579 72.8193 17.9318 72.6238C17.8589 72.0971 18.2183 71.5992 18.7964 71.448C19.0855 71.3724 19.398 71.3724 19.7 71.3385C19.7 71.3541 19.7 71.3724 19.7026 71.388C20.7078 71.4115 21.7156 71.4297 22.7208 71.4558C23.2286 71.4688 23.7364 71.4923 24.2442 71.521C24.627 71.5418 24.976 71.6592 25.2494 71.9459C25.6166 72.3292 25.6634 72.7724 25.3614 73.2077H25.364ZM29.1399 62.1644C28.916 62.4251 28.6295 62.5763 28.3066 62.6545C28.1399 62.6936 28.0696 62.7666 28.0436 62.9465C27.9186 63.8407 27.7754 64.7323 27.6348 65.6265C27.4967 66.5077 27.3561 67.3889 27.2207 68.27C27.1556 68.695 27.0853 69.1173 27.0306 69.5423C26.9577 70.1106 26.6712 70.327 26.114 70.2592C25.6322 70.1992 25.1478 70.1653 24.6635 70.1367C23.9187 70.0923 23.1739 70.035 22.4291 70.0324C21.6974 70.0324 20.963 70.0897 20.2287 70.1262C20.0386 70.1367 19.8485 70.1732 19.6558 70.181C19.2027 70.1992 18.9136 69.8343 19.0126 69.3885C19.2599 68.2622 19.5047 67.136 19.7495 66.0098C19.7573 65.9785 19.7495 65.942 19.7495 65.8429C17.9058 66.0958 16.0855 66.1844 14.2366 65.9237C14.1923 66.0958 14.1533 66.2444 14.1168 66.3956C13.8981 67.295 13.6793 68.197 13.458 69.0965C13.3382 69.5788 13.0309 69.7534 12.5439 69.6257C11.8096 69.4328 11.0622 69.3311 10.3122 69.2398C9.27579 69.1147 8.23675 69.1121 7.19771 69.1382C6.95032 69.1434 6.70293 69.1799 6.45294 69.1903C5.9243 69.2112 5.67171 68.9844 5.65608 68.4551C5.62744 67.3915 5.62744 66.3304 5.75243 65.2694C5.87222 64.237 6.01284 63.2072 6.23159 62.1905C6.2368 62.1696 6.2368 62.1461 6.24201 62.1227C6.30711 61.8542 6.31232 61.6091 6.11961 61.3693C5.94774 61.1555 5.88524 60.8843 5.90347 60.6002C5.92951 60.17 6.22117 59.9328 6.64304 59.9719C7.23938 60.0266 7.83832 60.0501 8.43466 60.0944C9.16642 60.1492 9.89817 60.2143 10.6299 60.2639C11.2263 60.3056 11.8252 60.3291 12.4216 60.3708C13.2549 60.4281 14.0882 60.4933 14.9215 60.5506C15.0934 60.5611 15.1871 60.6654 15.2678 60.7905C15.5204 61.1711 15.6012 61.6091 15.6116 62.0523C15.6272 62.691 15.497 63.3115 15.3069 63.9189C15.2783 64.0128 15.2522 64.1092 15.2132 64.25C16.1376 64.2213 17.0256 64.1927 17.9475 64.1614C17.9266 64.0128 17.9136 63.9007 17.8954 63.7938C17.7652 63.1133 17.7027 62.4251 17.7417 61.7342C17.7652 61.3041 17.8511 60.8843 18.0568 60.4933C18.1428 60.3317 18.2469 60.2613 18.4318 60.2795C19.1506 60.3499 19.8693 60.4125 20.5906 60.4724C21.2313 60.5272 21.8745 60.5741 22.5151 60.6289C23.5151 60.7149 24.5176 60.8035 25.5176 60.8922C26.2155 60.9547 26.9108 61.0225 27.6087 61.0773C27.7545 61.0903 27.9004 61.0668 28.0462 61.0564C28.3925 61.0277 28.7233 61.0799 29.0201 61.2702C29.3795 61.5022 29.4186 61.8385 29.1451 62.1592L29.1399 62.1644ZM114.786 52.8104C114.5 51.4235 113.977 50.1304 113.315 48.8868C112.354 47.0776 111.125 45.4586 109.797 43.91C109.695 43.7927 109.596 43.6702 109.495 43.5503C109.547 43.4721 109.578 43.4121 109.62 43.36C110.781 41.8896 111.773 40.315 112.492 38.5787C113.151 36.9884 113.568 35.3408 113.661 33.6201C113.742 32.155 113.586 30.7081 113.164 29.2977C112.271 26.297 110.479 23.9429 107.964 22.1284C106.115 20.7936 104.052 19.9307 101.834 19.4275C100.284 19.0756 98.7113 18.9348 97.128 18.9478C96.654 18.9504 96.1749 18.9713 95.7087 19.0495C94.6541 19.2242 93.5942 19.4015 92.5552 19.6491C89.8078 20.3061 87.2246 21.3567 84.9043 23.0018C83.3314 24.1202 81.9799 25.4576 80.9434 27.0948C79.6831 29.0917 79.0503 31.279 78.9904 33.6384C78.9539 35.1087 79.1388 36.5478 79.493 37.9686C80.0034 40.0099 80.8132 41.9339 81.8341 43.7693C82.1856 44.4002 82.558 45.0232 82.9278 45.662C82.8523 45.7767 82.7741 45.9018 82.6934 46.0217C81.6934 47.4921 80.7638 49.0016 79.9487 50.584C79.1544 52.1248 78.4695 53.7124 78.0633 55.4044C77.7326 56.7757 77.5789 58.1574 77.8133 59.5704C78.0607 61.0616 78.7378 62.3182 79.7664 63.4053C80.2534 63.9163 80.8158 64.3334 81.3992 64.7245C81.5085 64.7975 81.6205 64.8548 81.6387 65.0217C81.6908 65.504 81.7663 65.9837 81.8393 66.466C82.0111 67.5948 82.1674 68.7263 82.3653 69.8525C82.6674 71.5757 83.0033 73.2964 83.321 75.017C83.5658 76.3362 83.9824 77.5953 84.5996 78.7868C84.9564 79.4776 85.4043 80.0981 86.0084 80.5934C86.6308 81.1044 87.3417 81.326 88.1516 81.2582C88.7948 81.2035 89.3834 80.9949 89.9511 80.7081C90.8677 80.2493 91.6698 79.6236 92.451 78.9692C92.8156 78.6642 93.1463 78.3305 93.4275 77.9447C94.9457 75.8695 95.7947 73.5414 96.0733 70.9944C96.1645 70.1601 96.1983 69.3259 96.1645 68.4864C96.1592 68.39 96.1723 68.2935 96.1775 68.1996H97.5785C97.5889 68.3326 97.6019 68.4421 97.6071 68.5516C97.6748 70.5329 97.7373 72.5143 97.805 74.4956C97.8311 75.2447 98.0264 75.9477 98.391 76.6047C98.8128 77.3607 99.3337 78.0411 100.016 78.5834C100.68 79.11 101.427 79.3681 102.282 79.329C102.987 79.2977 103.628 79.0631 104.245 78.745C105.24 78.2315 106.097 77.5302 106.893 76.7533C107.167 76.4848 107.464 76.2267 107.677 75.9138C108.591 74.5686 109.297 73.1191 109.805 71.5731C110.458 69.5762 110.714 67.5218 110.68 65.4284C110.669 64.7506 110.615 64.0701 110.534 63.3975C110.497 63.0977 110.576 62.9204 110.802 62.7353C111.779 61.9376 112.646 61.0329 113.359 59.9849C114.849 57.795 115.318 55.407 114.784 52.813L114.786 52.8104ZM94.8832 21.3776C98.8076 21.3619 101.646 24.5738 101.61 28.0646C101.641 31.7379 98.6175 34.7307 94.9952 34.762C91.425 34.7933 88.2558 31.9438 88.2454 28.0907C88.2349 24.3157 91.2583 21.3932 94.8832 21.3776ZM92.8781 72.8975C92.5994 73.3224 92.3026 73.737 92.0083 74.1515C91.4094 75.0014 90.7974 75.8434 90.2115 76.7011C89.7193 77.4233 88.8157 77.4989 88.1594 77.173C87.9303 77.0583 87.7688 76.868 87.649 76.6438C86.9511 75.3377 86.2584 74.0263 85.5527 72.7254C85.2454 72.1571 85.472 71.6305 85.9798 71.2994C86.2454 71.1273 86.5397 71.0726 86.8522 71.0804C87.1126 71.0856 87.373 71.0804 87.6308 71.0804C87.6308 71.0856 87.6308 71.0908 87.6308 71.096C88.5579 71.1221 89.4823 71.1456 90.4094 71.1743C90.8729 71.1899 91.3338 71.2134 91.7974 71.2368C92.214 71.2577 92.5578 71.4219 92.8312 71.7426C93.1255 72.0893 93.1541 72.4673 92.8755 72.8949L92.8781 72.8975ZM107.633 72.6264C106.875 73.7109 106.11 74.7902 105.349 75.8695C105.224 76.0442 105.094 76.2162 104.982 76.3987C104.453 77.2408 102.912 77.3503 102.36 76.2527C101.74 75.0196 101.065 73.8152 100.414 72.6003C100.373 72.5195 100.328 72.4413 100.289 72.3578C100.076 71.9042 100.162 71.5053 100.532 71.1638C100.831 70.8901 101.188 70.7754 101.584 70.7597C101.709 70.7545 101.831 70.7597 101.956 70.7597C101.956 70.7676 101.956 70.7728 101.956 70.7806C103.357 70.8223 104.755 70.8614 106.156 70.9031C106.36 70.9083 106.563 70.9292 106.763 70.9579C107.141 71.0126 107.44 71.2081 107.662 71.5132C107.906 71.8521 107.896 72.2536 107.636 72.6238L107.633 72.6264ZM109.399 61.046C109.229 61.2337 108.997 61.3693 108.779 61.5048C108.649 61.5882 108.49 61.6247 108.331 61.6899C108.305 61.9324 108.274 62.1644 108.253 62.399C108.167 63.3219 108.081 64.2448 108 65.1677C107.943 65.822 107.893 66.4738 107.836 67.1282C107.774 67.8373 107.711 68.5464 107.643 69.2529C107.615 69.5423 107.365 69.7743 107.044 69.8004C106.865 69.816 106.682 69.8056 106.503 69.8004C105.815 69.7847 105.125 69.7404 104.44 69.7586C102.904 69.7977 101.365 69.8108 99.8493 70.1262C99.6123 70.1758 99.3988 70.1132 99.2087 69.9724C99.0368 69.8447 98.9561 69.6961 98.9977 69.451C99.193 68.2935 99.3649 67.1308 99.5394 65.9706C99.5602 65.8403 99.5576 65.7047 99.5706 65.5222C97.5785 65.968 95.6254 66.1036 93.615 65.9837C93.5551 66.3096 93.4978 66.6172 93.4432 66.9248C93.2921 67.7695 93.1437 68.6142 92.99 69.4588C92.9276 69.8004 92.6776 70.0193 92.3364 70.0324C92.201 70.0376 92.0656 70.0115 91.9328 69.9959C91.3052 69.9177 90.6828 69.7951 90.0526 69.7691C89.1255 69.73 88.1959 69.7326 87.2714 69.7613C86.6751 69.7795 86.0787 69.8655 85.485 69.9437C84.9408 70.0141 84.6335 69.7769 84.5501 69.232C84.3652 68.0041 84.3652 66.7684 84.4277 65.5379C84.4824 64.4455 84.6309 63.3558 84.7454 62.2687C84.7637 62.0888 84.7454 61.9428 84.623 61.7994C84.4434 61.5935 84.321 61.351 84.2559 61.0799C84.1908 60.8035 84.2559 60.5663 84.4251 60.3525C84.5293 60.2222 84.6595 60.1518 84.8366 60.1544C86.1152 60.17 87.3938 60.1831 88.6724 60.1961C89.7688 60.2065 90.8651 60.2196 91.9614 60.2274C92.6072 60.2326 93.2505 60.2404 93.8963 60.23C94.115 60.2274 94.2661 60.3082 94.378 60.4829C94.6228 60.8609 94.7739 61.2728 94.8051 61.7212C94.8572 62.4825 94.8051 63.2359 94.5733 63.9711C94.5629 64.0023 94.5629 64.0362 94.5525 64.1171C95.5395 64.0832 96.5056 63.945 97.5004 63.8798C97.404 63.4444 97.2972 63.0325 97.2243 62.6128C97.0993 61.9089 97.0394 61.1998 97.1853 60.4881C97.1905 60.4646 97.1905 60.4438 97.1983 60.4203C97.365 59.7425 97.3936 59.7242 98.0837 59.7451C98.5811 59.7581 99.0785 59.7607 99.5758 59.7685C100.774 59.792 101.972 59.8155 103.17 59.8415C103.893 59.8572 104.615 59.8806 105.339 59.9015C106.063 59.9224 106.784 59.9458 107.508 59.9589C107.789 59.9641 108.073 59.9432 108.354 59.9171C108.646 59.8885 108.919 59.9432 109.18 60.0605C109.625 60.2613 109.732 60.6966 109.406 61.0538L109.399 61.046ZM95.904 57.3206C98.6618 57.3414 101.422 57.3597 104.18 57.3857C105.039 57.3935 105.899 57.4118 106.755 57.4405C106.906 57.4457 107.07 57.4926 107.203 57.5682C107.63 57.8055 107.672 58.3217 107.307 58.6475C106.998 58.9239 106.62 58.9812 106.232 58.9812C105.487 58.9812 104.74 58.9552 103.995 58.9499C102.073 58.9369 100.151 58.9343 98.2269 58.916C96.0915 58.8978 93.9536 58.8691 91.8182 58.8457C90.0448 58.8274 88.2714 58.8118 86.498 58.7883C86.2845 58.7857 86.0683 58.7648 85.86 58.7179C85.5058 58.6371 85.2663 58.3555 85.2454 58.0349C85.2272 57.7559 85.485 57.4066 85.8053 57.3023C85.9433 57.258 86.0918 57.2371 86.2376 57.2345C86.7688 57.2267 87.3001 57.2319 87.8313 57.2319C87.8313 57.2397 87.8313 57.2449 87.8313 57.2528C90.5214 57.2736 93.2114 57.2971 95.904 57.3179V57.3206ZM111.695 59.8728C111.654 59.9771 111.596 60.0788 111.565 60.1857C111.482 60.4646 111.279 60.5715 111.01 60.608C110.708 60.6471 110.443 60.5037 110.404 60.2039C110.367 59.9198 110.427 59.6226 110.43 59.3332C110.44 58.7466 110.482 58.1574 110.435 57.5734C110.375 56.8096 110.274 56.0457 110.133 55.2923C109.774 53.3292 109.227 51.4183 108.451 49.5777C108.169 48.9103 107.846 48.2612 107.534 47.6094C107.401 47.3305 107.365 47.3174 107.089 47.4035C106.68 47.5286 106.276 47.6694 105.852 47.8101C105.87 47.9327 105.873 48.0344 105.896 48.1282C106.456 50.4328 107.018 52.7374 107.581 55.0446C107.604 55.1437 107.625 55.2428 107.646 55.3418C107.727 55.7172 107.57 56.0144 107.208 56.1396C107.094 56.1787 106.966 56.1943 106.844 56.2021C106.583 56.2126 106.323 56.2126 106.063 56.2152C103.12 56.2439 100.18 56.2725 97.2373 56.3012C97.1358 56.3012 97.0342 56.3064 96.9327 56.296C96.602 56.2647 96.3832 56.004 96.3884 55.6755C96.404 54.4528 96.4171 53.2301 96.4301 52.0075C96.4431 50.8864 96.4587 49.7654 96.4743 48.6444C96.4796 48.2872 96.6306 48.1178 97.0004 48.0552C97.9352 47.8936 98.8727 47.7372 99.8076 47.5755C99.9378 47.5521 100.068 47.526 100.235 47.4921C99.9795 46.9629 99.7399 46.4649 99.4847 45.9331C97.2269 46.5457 94.9614 46.8169 92.6411 46.0139V47.4764C92.7947 47.5468 92.99 47.6329 93.1827 47.7215C93.6359 47.9275 94.0864 48.1386 94.5447 48.3342C94.7244 48.4124 94.7973 48.5114 94.7921 48.7174C94.7582 50.1539 94.74 51.5903 94.714 53.0268C94.6957 53.9314 94.6723 54.8361 94.6489 55.7433C94.6358 56.1995 94.4197 56.4263 93.9562 56.4342C92.7348 56.4576 91.5135 56.4759 90.2922 56.4863C88.787 56.4967 87.2818 56.4967 85.7767 56.5019C85.597 56.5019 85.4147 56.5072 85.235 56.5228C84.7246 56.5619 84.4147 56.1969 84.5736 55.7068C84.8913 54.7266 85.2246 53.7542 85.5475 52.7765C86.011 51.3792 86.472 49.9844 86.9329 48.587C86.9459 48.5453 86.9563 48.501 86.9772 48.415C86.7949 48.3811 86.6256 48.3472 86.4537 48.3211C86.1517 48.2742 85.8496 48.2377 85.5501 48.1856C85.3704 48.1543 85.2897 48.2273 85.2116 48.3837C84.571 49.6872 84.0762 51.0481 83.6647 52.4376C83.097 54.359 82.696 56.3195 82.3184 58.2825C82.1804 59.0021 82.0658 59.7268 81.9356 60.475C81.4773 60.5715 81.1153 60.4073 80.8132 60.0892C80.5424 59.805 80.3731 59.4557 80.2742 59.0829C80.0711 58.3321 80.0372 57.5708 80.0919 56.7965C80.1544 55.9362 80.256 55.0811 80.4799 54.2547C80.8237 52.9799 81.196 51.7076 81.6127 50.4537C81.9643 49.4004 82.558 48.4749 83.3496 47.6876C84.0085 47.0333 84.7741 46.5353 85.6256 46.1755C86.0006 46.0165 86.386 45.8862 86.7688 45.7428C86.86 45.7089 86.9511 45.675 87.1152 45.615C84.4382 44.2802 82.6778 42.2233 81.7585 39.4494C81.2117 37.8044 81.0893 35.6275 81.3887 34.4752C81.4278 34.5587 81.4643 34.6134 81.4825 34.6734C82.0788 36.5609 83.0476 38.2554 84.1856 39.8613C85.0501 41.0814 86.0136 42.2207 87.0188 43.3287C88.261 44.6974 89.6099 45.9513 90.951 47.2157C91.0213 47.2809 91.1047 47.3331 91.2245 47.4217C91.2896 46.9576 91.3547 46.5666 91.3937 46.1755C91.4067 46.0374 91.3807 45.881 91.3286 45.7506C91.1125 45.2162 90.8807 44.6895 90.6281 44.103C90.7609 44.129 90.8469 44.1316 90.9198 44.1629C91.9536 44.5748 93.0213 44.8564 94.128 44.9894C94.8963 45.0806 95.6619 45.0597 96.4275 44.9737C97.8311 44.8173 99.1644 44.4002 100.461 43.8527C100.521 43.8266 100.586 43.811 100.672 43.7823C100.925 44.4314 101.175 45.0676 101.438 45.7402C101.545 45.6541 101.615 45.6046 101.677 45.5446C102.498 44.7313 103.336 43.9361 104.13 43.0993C105.516 41.6445 106.781 40.0986 107.662 38.2711C108.172 37.2152 108.516 36.1046 108.711 34.9497C108.82 34.3032 108.899 33.654 108.992 33.0049C109.008 32.898 109.031 32.7937 109.052 32.6868C109.078 32.6868 109.104 32.6868 109.13 32.6868C109.289 33.5315 109.456 34.3736 109.602 35.2182C109.714 35.8674 109.745 36.5218 109.734 37.1813C109.706 39.0688 109.094 40.7243 107.815 42.1268C107.177 42.8255 106.451 43.4147 105.654 43.9231C105.55 43.9883 105.451 44.0613 105.321 44.1499C105.584 44.2933 105.818 44.421 106.05 44.5488C108.43 45.8705 110.208 47.7632 111.349 50.2373C111.917 51.4652 112.271 52.7635 112.393 54.1191C112.435 54.5806 112.503 55.0446 112.495 55.5061C112.474 57.0077 112.258 58.4807 111.69 59.8833L111.695 59.8728ZM53.0821 17.9676C54.517 18.0354 55.9492 18.1162 57.3841 18.1866C58.6835 18.2518 59.983 18.3013 61.2798 18.3769C61.7538 18.4056 62.173 18.0354 62.1913 17.5348C62.2303 16.5051 62.2824 15.4779 62.3293 14.4481C62.3944 13.0117 62.4595 11.5778 62.5246 10.1413C62.548 9.62253 62.5793 9.10112 62.5949 8.58233C62.6105 8.0531 62.2954 7.70637 61.7668 7.66205C61.5428 7.6438 61.3163 7.63077 61.0897 7.61512C59.5663 7.51606 58.0429 7.41699 56.5221 7.31792C55.4831 7.25014 54.4466 7.18236 53.4076 7.11458C53.1628 7.09893 52.9389 7.14325 52.7462 7.31271C52.5352 7.50042 52.4623 7.73505 52.4545 8.00878C52.4076 9.52346 52.3555 11.0407 52.3061 12.5554C52.2878 13.0429 52.2722 13.5278 52.254 14.0154C52.2201 15.0112 52.1889 16.0071 52.155 17.0004C52.1472 17.235 52.1837 17.4514 52.3321 17.6391C52.5248 17.8816 52.7826 17.9546 53.0795 17.9676H53.0821ZM53.3087 14.0805C53.3165 13.6269 53.3087 13.1759 53.3087 12.7223C53.3217 12.7223 53.3373 12.7223 53.3503 12.7223C53.379 11.8385 53.405 10.9573 53.4389 10.0735C53.4493 9.84934 53.4649 9.61732 53.53 9.40615C53.7201 8.79089 54.3164 8.3477 54.9675 8.36334C55.6576 8.37898 56.345 8.43894 57.0325 8.48326C58.1054 8.55104 59.1757 8.63708 60.2486 8.68922C61.0246 8.72572 61.8006 9.36704 61.7512 10.3655C61.6678 12.0627 61.6001 13.7573 61.522 15.4544C61.5116 15.6682 61.5116 15.8872 61.4725 16.0958C61.3293 16.8753 60.6627 17.4097 59.8736 17.3758C58.1783 17.2976 56.4857 17.2142 54.7904 17.1203C53.8477 17.0682 53.2279 16.3825 53.2514 15.4388C53.2618 14.9852 53.293 14.5342 53.3008 14.0805H53.3087ZM15.2757 31.3364C17.9058 31.485 19.2183 31.5762 19.7469 31.5919C20.7912 31.618 21.6766 31.6857 22.2781 31.7327C22.9526 31.7848 23.5203 31.8395 23.9343 31.8839C24.6583 32.0142 25.2832 31.7066 25.4525 31.2399C25.5567 30.9532 25.4655 30.669 25.4056 30.5256C24.6114 29.3003 23.8119 28.0203 23.0177 26.6881C22.1323 25.2047 21.3042 23.7526 20.5307 22.3344C20.3276 22.569 20.1323 22.801 19.9318 23.0304C18.0959 25.1239 16.2626 27.2173 14.4241 29.3081C14.0804 29.6966 14.0595 30.1189 14.2522 30.5699C14.4449 31.0183 14.7626 31.3077 15.2757 31.3364ZM20.1714 25.7678C21.0359 27.2694 21.9005 28.7711 22.7651 30.2727C20.7156 30.059 18.6636 29.8426 16.6142 29.6288C17.799 28.3409 18.9865 27.0557 20.1714 25.7678ZM90.1203 28.1219C90.0995 25.4341 92.2349 23.2625 94.9093 23.2468C97.5472 23.2312 99.7347 25.382 99.7477 28.0072C99.7633 30.7107 97.6254 32.8719 94.9197 32.885C92.313 32.898 90.1359 30.7368 90.1177 28.1219H90.1203ZM54.1993 15.4492C54.2227 14.5446 54.2592 13.6399 54.2904 12.7353C54.2904 12.7353 54.2904 12.7353 54.2878 12.7353C54.319 11.8072 54.3503 10.8817 54.3841 9.95362C54.3998 9.50261 54.6446 9.27319 55.1029 9.29665C56.0404 9.34619 56.9752 9.40875 57.9127 9.46872C58.6341 9.51564 59.3554 9.56257 60.0767 9.6121C60.6627 9.65381 60.8423 9.8702 60.8163 10.4646C60.7356 12.2061 60.66 13.945 60.5819 15.6865C60.5559 16.2418 60.3189 16.4581 59.7668 16.4295C58.1419 16.346 56.5169 16.2626 54.8919 16.1792C54.418 16.1557 54.1862 15.9237 54.1993 15.4492ZM75.7847 100.37V86.016H79.1102V100.37H75.7847ZM66.8578 86.016H70.1833V93.1931C70.1833 95.1823 69.3734 96.8743 67.7536 98.2716C66.1339 99.669 64.1704 100.368 61.8684 100.368C59.5663 100.368 57.6028 99.669 55.9831 98.2716C54.3633 96.8743 53.5534 95.1797 53.5534 93.1931V86.016H56.8789V93.1931C56.8789 94.3898 57.3632 95.4065 58.3346 96.2434C59.3059 97.0802 60.483 97.4999 61.8684 97.4999C63.2537 97.4999 64.4334 97.0828 65.4021 96.2434C66.3735 95.4065 66.8578 94.3898 66.8578 93.1931V86.016ZM103.125 98.2716C104.745 96.8743 105.555 95.1797 105.555 93.1931C105.555 91.2066 104.745 89.512 103.125 88.1121C101.505 86.7147 99.542 86.016 97.24 86.016H85.597V100.37H97.24C99.5446 100.37 101.505 99.6716 103.125 98.2742V98.2716ZM88.9224 88.8864H97.2373C98.6227 88.8864 99.8024 89.3061 100.771 90.1429C101.742 90.9798 102.227 91.9965 102.227 93.1931C102.227 94.3898 101.742 95.4065 100.771 96.2434C99.7998 97.0802 98.6227 97.4999 97.2373 97.4999H88.9224V88.889V88.8864ZM28.5774 96.0635C28.5774 97.2601 28.0931 98.2768 27.1217 99.1137C26.1504 99.9505 24.9734 100.37 23.588 100.37H3.62748V97.4999H23.5854C24.0541 97.4999 24.4473 97.3618 24.7676 97.0854C25.0879 96.8091 25.2494 96.4676 25.2494 96.0661C25.2494 95.6646 25.0879 95.3231 24.7676 95.0467C24.4473 94.7704 24.0541 94.6322 23.5854 94.6322H16.9319C15.5465 94.6322 14.3668 94.2151 13.3981 93.3756C12.4268 92.5388 11.9424 91.522 11.9424 90.3254C11.9424 89.1288 12.4268 88.1121 13.3981 87.2752C14.3694 86.4384 15.5465 86.0186 16.9319 86.0186H26.9108V88.889H16.9319C16.4631 88.889 16.0699 89.0271 15.7496 89.3035C15.4293 89.5798 15.2678 89.9213 15.2678 90.3228C15.2678 90.7243 15.4267 91.0658 15.7496 91.3422C16.0699 91.6185 16.4631 91.7567 16.9319 91.7567H23.5854C24.9707 91.7567 26.1504 92.1764 27.1191 93.0133C28.0905 93.8501 28.5748 94.8669 28.5748 96.0635H28.5774ZM36.5226 108.387V111.038H42.6683L44.374 113.69H36.5226C35.2414 113.69 34.1528 113.304 33.257 112.529C32.3612 111.755 31.9133 110.817 31.9133 109.711C31.9133 108.606 32.3612 107.667 33.257 106.893C34.1528 106.119 35.2414 105.733 36.5226 105.733H47.2775L48.7228 103.238H48.8322L48.7749 103.149L48.814 103.082H48.7306L45.9494 98.7774C46.1734 98.6131 46.3921 98.4411 46.5979 98.2612C48.2098 96.8716 49.0145 95.1823 49.0145 93.1931C49.0145 91.204 48.2046 89.512 46.5848 88.1121C44.9651 86.7147 43.0016 86.016 40.6996 86.016C38.3975 86.016 36.434 86.7147 34.8143 88.1121C33.1945 89.5094 32.3846 91.204 32.3846 93.1931C32.3846 95.1823 33.1945 96.8743 34.8143 98.2716C36.434 99.669 38.3949 100.368 40.6996 100.368C41.6709 100.368 42.5797 100.248 43.4287 100.008L45.4052 103.079H36.5226C34.3924 103.079 32.58 103.726 31.0852 105.016C29.5878 106.309 28.8405 107.873 28.8405 109.709C28.8405 111.544 29.5878 113.111 31.0852 114.401C32.5826 115.694 34.395 116.338 36.5226 116.338H46.077L47.7827 118.99H50.9051L44.2073 108.382H36.5252L36.5226 108.387ZM44.2854 96.199L42.3636 93.1931H39.0381L41.7672 97.4087C41.4209 97.4687 41.0667 97.4973 40.7022 97.4973C39.3168 97.4973 38.1371 97.0802 37.1684 96.2407C36.1971 95.4039 35.7127 94.3872 35.7127 93.1905C35.7127 91.9939 36.1971 90.9772 37.1684 90.1403C38.1397 89.3035 39.3168 88.8837 40.7022 88.8837C42.0876 88.8837 43.2672 89.3035 44.2359 90.1403C45.2073 90.9772 45.6916 91.9939 45.6916 93.1905C45.6916 94.3872 45.2229 95.3596 44.288 96.1964L44.2854 96.199ZM95.6957 103.084H111.063V105.736H98.7686V113.692H111.063V116.343H95.6957V103.082V103.084ZM102.61 108.389H111.06V111.041H102.61V108.389ZM60.233 102.422L67.9151 116.346H64.4568L60.2304 108.721L56.0039 116.346H52.5457L60.2278 102.422H60.233ZM86.6308 103.084H89.7037V116.346H86.6308V108.389L82.0215 116.346H78.9487L74.3394 108.389V116.346H71.2666V103.084H74.3394L80.4851 113.03L86.6308 103.084Z" fill="#383435"/>
    <path d="M15.3147 32.2827C16.2964 32.3297 17.2808 32.3844 18.2625 32.4391C20.1713 32.546 22.0801 32.6529 23.989 32.7598C24.3718 32.7807 24.7546 32.8015 25.1764 32.825C25.278 32.8302 26.0514 32.8563 26.4967 32.2853C26.8561 31.8265 26.778 31.2712 26.7389 31.0027C26.6504 30.3666 26.3353 30.0277 25.7467 29.1934C25.3665 28.6564 25.0332 28.088 24.6686 27.538C23.9473 26.4534 23.4864 25.5879 22.6374 23.9481C21.6374 22.0163 21.4552 21.3359 20.877 21.2603C20.1062 21.1586 19.3667 22.0971 18.9656 22.6941C18.8849 22.7906 18.8276 22.861 18.7703 22.9287C18.1219 23.6691 17.4735 24.4095 16.8251 25.1499C15.8095 26.3074 14.7965 27.465 13.7782 28.6199C13.5048 28.9327 13.2939 29.269 13.2236 29.6887C13.0048 31.0079 13.9814 32.2176 15.3147 32.2801V32.2827ZM14.4241 29.3081C16.2626 27.2173 18.0959 25.1239 19.9318 23.0304C20.1323 22.801 20.3276 22.5716 20.5307 22.3343C21.3041 23.7526 22.1322 25.2047 23.0176 26.6881C23.8145 28.0203 24.6113 29.3003 25.4056 30.5256C25.4655 30.669 25.5566 30.9531 25.4525 31.2399C25.2832 31.7066 24.6556 32.0142 23.9343 31.8839C23.5202 31.8395 22.9525 31.7848 22.2781 31.7326C21.6739 31.6857 20.7911 31.6179 19.7469 31.5919C19.2182 31.5788 17.9058 31.485 15.2756 31.3364C14.7626 31.3077 14.4449 31.0183 14.2522 30.5699C14.0595 30.1189 14.0803 29.6966 14.4241 29.3081ZM52.5925 19.7951C53.1602 19.8785 53.7409 19.8811 54.319 19.9124C55.9231 19.9958 57.5273 20.0741 59.1314 20.1523C59.8657 20.1888 60.6001 20.2409 61.3345 20.2513C62.7771 20.2696 63.9646 19.1486 64.0453 17.7095C64.087 16.9743 64.1209 16.2391 64.1547 15.504C64.2198 14.0909 64.2875 12.6753 64.35 11.2623C64.3891 10.3577 64.4255 9.45306 64.4594 8.54582C64.5063 7.27359 63.5948 6.03526 62.1574 5.81887C61.7121 5.75109 61.2563 5.74588 60.8058 5.7172C59.259 5.61553 57.7121 5.51385 56.1653 5.41479C55.2278 5.35483 54.293 5.27401 53.3529 5.24533C52.0118 5.20362 50.8972 6.11608 50.6446 7.43783C50.5925 7.71418 50.5873 8.00095 50.5769 8.28251C50.5274 9.67466 50.4831 11.0668 50.4363 12.459C50.4363 12.459 50.4363 12.459 50.4337 12.459C50.3842 13.9971 50.3243 15.5378 50.2904 17.076C50.2592 18.4525 51.2227 19.5996 52.5925 19.7977V19.7951ZM52.1576 17.003C52.194 16.0071 52.2253 15.0112 52.2565 14.018C52.2722 13.5304 52.2904 13.0455 52.3086 12.558C52.3581 11.0433 52.4102 9.52606 52.4571 8.01138C52.4649 7.73764 52.5378 7.50301 52.7487 7.3153C52.9414 7.14585 53.1654 7.10153 53.4102 7.11717C54.4492 7.18495 55.4856 7.25274 56.5247 7.32052C58.0481 7.41958 59.5715 7.51865 61.0923 7.61772C61.3188 7.63336 61.5428 7.6464 61.7693 7.66464C62.298 7.70896 62.6131 8.0557 62.5975 8.58492C62.5818 9.10633 62.5506 9.62512 62.5271 10.1439C62.462 11.5804 62.3969 13.0142 62.3318 14.4507C62.285 15.4805 62.2329 16.5077 62.1938 17.5374C62.1756 18.038 61.7563 18.4056 61.2824 18.3795C59.9855 18.3039 58.6861 18.2544 57.3866 18.1892C55.9518 18.1188 54.5195 18.038 53.0847 17.9702C52.7878 17.9572 52.53 17.8842 52.3373 17.6417C52.1888 17.454 52.1524 17.2376 52.1602 17.003H52.1576ZM94.9952 34.762C98.6175 34.7281 101.641 31.7379 101.61 28.0646C101.649 24.5738 98.8076 21.3619 94.8832 21.3776C91.2583 21.3932 88.2349 24.3157 88.2453 28.0906C88.2557 31.9438 91.4249 34.7959 94.9952 34.762ZM94.9092 23.2494C97.5472 23.2338 99.7346 25.3846 99.7477 28.0098C99.7633 30.7133 97.6253 32.8745 94.9196 32.8876C92.3129 32.9006 90.1359 30.7394 90.1177 28.1245C90.0968 25.4367 92.2322 23.265 94.9066 23.2494H94.9092ZM54.7982 17.1203C56.4908 17.2142 58.1861 17.2976 59.8814 17.3758C60.6704 17.4123 61.3371 16.8752 61.4803 16.0957C61.5194 15.8872 61.5194 15.6682 61.5298 15.4544C61.6053 13.7572 61.673 12.0601 61.7589 10.3655C61.8084 9.36703 61.0324 8.7257 60.2564 8.6892C59.1835 8.63706 58.1132 8.55364 57.0403 8.48325C56.3528 8.43893 55.6627 8.37897 54.9752 8.36333C54.3242 8.34768 53.7279 8.79088 53.5378 9.40613C53.4727 9.6173 53.4544 9.84933 53.4466 10.0735C53.4102 10.9547 53.3867 11.8385 53.3581 12.7223C53.3451 12.7223 53.3294 12.7223 53.3164 12.7223C53.3164 13.1759 53.3242 13.6269 53.3164 14.0805C53.3086 14.5341 53.2774 14.9852 53.2669 15.4388C53.2435 16.3825 53.8633 17.0682 54.806 17.1203H54.7982ZM54.2877 12.7405C54.319 11.8124 54.3502 10.8869 54.3841 9.95882C54.3997 9.50781 54.6445 9.27839 55.1028 9.30185C56.0403 9.35139 56.9752 9.41395 57.9127 9.47392C58.634 9.52084 59.3553 9.56777 60.0767 9.6173C60.6626 9.65901 60.8423 9.8754 60.8162 10.4698C60.7355 12.2113 60.66 13.9502 60.5819 15.6917C60.5558 16.247 60.3189 16.4633 59.7668 16.4347C58.1418 16.3512 56.5169 16.2678 54.8919 16.1844C54.4179 16.1609 54.1862 15.9289 54.1992 15.4544C54.2226 14.5498 54.2591 13.6451 54.2904 12.7405C54.2904 12.7405 54.2904 12.7405 54.2877 12.7405ZM22.765 30.2753C20.7156 30.0615 18.6636 29.8452 16.6141 29.6314C17.799 28.3435 18.9865 27.0583 20.1713 25.7704C21.0359 27.272 21.9005 28.7737 22.765 30.2753Z" fill="#FBFBFB"/>
  </g>
  <defs>
    <clipPath id="clip0_257_25">
      <rect width="115" height="119" fill="white"/>
    </clipPath>
  </defs>
</svg>